Benne_0412.ufo
<glyph name="three" format="1">
  <advance width="372"/>
  <unicode hex="0033"/>
  <outline>
    <contour>
      <point x="36" y="340"/>
      <point x="113" y="413"/>
      <point x="180" y="413" type="curve" smooth="yes"/>
      <point x="247" y="413"/>
      <point x="289" y="369"/>
      <point x="289" y="316" type="curve" smooth="yes"/>
      <point x="289" y="253"/>
      <point x="258" y="203"/>
      <point x="195" y="167" type="curve"/>
      <point x="192" y="164"/>
      <point x="192" y="162"/>
      <point x="196" y="161" type="curve"/>
      <point x="280" y="160"/>
      <point x="319" y="106"/>
      <point x="319" y="53" type="curve" smooth="yes"/>
      <point x="319" y="-41"/>
      <point x="264" y="-115"/>
      <point x="155" y="-169" type="curve" smooth="yes"/>
      <point x="127" y="-183"/>
      <point x="104" y="-190"/>
      <point x="86" y="-190" type="curve" smooth="yes"/>
      <point x="68" y="-190"/>
      <point x="59" y="-185"/>
      <point x="59" y="-176" type="curve" smooth="yes"/>
      <point x="59" y="-164"/>
      <point x="74" y="-146"/>
      <point x="86" y="-146" type="curve" smooth="yes"/>
      <point x="150" y="-146"/>
      <point x="191" y="-122"/>
      <point x="221" y="-80" type="curve" smooth="yes"/>
      <point x="236" y="-59"/>
      <point x="243" y="-27"/>
      <point x="243" y="17" type="curve" smooth="yes"/>
      <point x="243" y="45"/>
      <point x="239" y="70"/>
      <point x="212" y="94" type="curve" smooth="yes"/>
      <point x="198" y="106"/>
      <point x="180" y="112"/>
      <point x="157" y="112" type="curve" smooth="yes"/>
      <point x="140" y="112"/>
      <point x="126" y="109"/>
      <point x="114" y="102" type="curve" smooth="yes"/>
      <point x="102" y="95"/>
      <point x="96" y="92"/>
      <point x="95" y="92" type="curve" smooth="yes"/>
      <point x="84" y="92"/>
      <point x="78" y="95"/>
      <point x="78" y="101" type="curve" smooth="yes"/>
      <point x="78" y="105"/>
      <point x="82" y="111"/>
      <point x="89" y="118" type="curve" smooth="yes"/>
      <point x="96" y="125"/>
      <point x="107" y="134"/>
      <point x="123" y="144" type="curve" smooth="yes"/>
      <point x="155" y="163"/>
      <point x="219" y="199"/>
      <point x="219" y="292" type="curve" smooth="yes"/>
      <point x="219" y="331"/>
      <point x="194" y="358"/>
      <point x="154" y="358" type="curve" smooth="yes"/>
      <point x="114" y="358"/>
      <point x="88" y="340"/>
      <point x="68" y="317" type="curve" smooth="yes"/>
      <point x="58" y="306"/>
      <point x="50" y="300"/>
      <point x="43" y="300" type="curve" smooth="yes"/>
      <point x="38" y="300"/>
      <point x="36" y="304"/>
      <point x="36" y="312" type="curve" smooth="yes"/>
    </contour>
  </outline>
</glyph>
<glyph name="four" format="1">
  <advance width="492"/>
  <unicode hex="0034"/>
  <outline>
    <contour>
      <point x="266" y="104" type="line" smooth="yes"/>
      <point x="274" y="104"/>
      <point x="278" y="107"/>
      <point x="278" y="112" type="curve" smooth="yes"/>
      <point x="278" y="281" type="line" smooth="yes"/>
      <point x="278" y="284"/>
      <point x="271" y="285"/>
      <point x="268" y="282" type="curve" smooth="yes"/>
      <point x="232" y="245"/>
      <point x="181" y="189"/>
      <point x="116" y="113" type="curve"/>
      <point x="112" y="107"/>
      <point x="112" y="104"/>
      <point x="116" y="104" type="curve" smooth="yes"/>
    </contour>
    <contour>
      <point x="34" y="43" type="line" smooth="yes"/>
      <point x="25" y="43"/>
      <point x="21" y="45"/>
      <point x="21" y="48" type="curve" smooth="yes"/>
      <point x="21" y="51"/>
      <point x="26" y="58"/>
      <point x="37" y="70" type="curve"/>
      <point x="47" y="82"/>
      <point x="138" y="184"/>
      <point x="311" y="377" type="curve"/>
      <point x="314" y="381"/>
      <point x="319" y="387"/>
      <point x="326" y="395" type="curve"/>
      <point x="339" y="412"/>
      <point x="347" y="421"/>
      <point x="350" y="421" type="curve" smooth="yes"/>
      <point x="351" y="421" type="line" smooth="yes"/>
      <point x="353" y="421"/>
      <point x="354" y="417"/>
      <point x="354" y="409" type="curve" smooth="yes"/>
      <point x="350" y="109" type="line" smooth="yes"/>
      <point x="350" y="105"/>
      <point x="353" y="103"/>
      <point x="360" y="103" type="curve"/>
      <point x="367" y="102"/>
      <point x="377" y="102"/>
      <point x="390" y="102" type="curve" smooth="yes"/>
      <point x="403" y="102"/>
      <point x="425" y="103"/>
      <point x="454" y="104" type="curve" smooth="yes"/>
      <point x="461" y="104"/>
      <point x="465" y="102"/>
      <point x="465" y="97" type="curve" smooth="yes"/>
      <point x="465" y="81"/>
      <point x="451" y="53"/>
      <point x="444" y="53" type="curve" smooth="yes"/>
      <point x="395" y="54" type="line" smooth="yes"/>
      <point x="366" y="54"/>
      <point x="351" y="51"/>
      <point x="351" y="46" type="curve" smooth="yes"/>
      <point x="351" y="-133" type="line" smooth="yes"/>
      <point x="351" y="-154"/>
      <point x="305" y="-181"/>
      <point x="293" y="-181" type="curve" smooth="yes"/>
      <point x="283" y="-181"/>
      <point x="278" y="-177"/>
      <point x="278" y="-168" type="curve" smooth="yes"/>
      <point x="278" y="41" type="line" smooth="yes"/>
      <point x="278" y="46"/>
      <point x="266" y="50"/>
      <point x="263" y="50" type="curve" smooth="yes"/>
    </contour>
  </outline>
</glyph>
<glyph name="seven" format="1">
  <advance width="460"/>
  <unicode hex="0037"/>
  <outline>
    <contour>
      <point x="113" y="402" type="line" smooth="yes"/>
      <point x="132" y="401"/>
      <point x="185" y="401"/>
      <point x="270" y="401" type="curve" smooth="yes"/>
      <point x="355" y="401"/>
      <point x="407" y="403"/>
      <point x="426" y="407" type="curve"/>
      <point x="431" y="407"/>
      <point x="433" y="404"/>
      <point x="433" y="397" type="curve" smooth="yes"/>
      <point x="433" y="390"/>
      <point x="431" y="382"/>
      <point x="426" y="374" type="curve"/>
      <point x="421" y="364"/>
      <point x="411" y="347"/>
      <point x="395" y="323" type="curve"/>
      <point x="115" y="-166" type="line" smooth="yes"/>
      <point x="105" y="-184"/>
      <point x="99" y="-193"/>
      <point x="96" y="-193" type="curve" smooth="yes"/>
      <point x="81" y="-193"/>
      <point x="68" y="-180"/>
      <point x="68" y="-170" type="curve" smooth="yes"/>
      <point x="68" y="-165"/>
      <point x="75" y="-151"/>
      <point x="89" y="-126" type="curve" smooth="yes"/>
      <point x="344" y="313" type="line"/>
      <point x="348" y="318"/>
      <point x="345" y="322"/>
      <point x="334" y="323" type="curve"/>
      <point x="256" y="325"/>
      <point x="187" y="326"/>
      <point x="128" y="326" type="curve" smooth="yes"/>
      <point x="115" y="326" type="line" smooth="yes"/>
      <point x="87" y="326"/>
      <point x="67" y="319"/>
      <point x="55" y="304" type="curve" smooth="yes"/>
      <point x="43" y="289"/>
      <point x="34" y="281"/>
      <point x="29" y="281" type="curve" smooth="yes"/>
      <point x="26" y="281"/>
      <point x="24" y="283"/>
      <point x="24" y="286" type="curve" smooth="yes"/>
      <point x="24" y="289"/>
      <point x="27" y="303"/>
      <point x="32" y="326" type="curve" smooth="yes"/>
      <point x="37" y="349"/>
      <point x="40" y="372"/>
      <point x="40" y="395" type="curve" smooth="yes"/>
      <point x="40" y="402"/>
      <point x="43" y="406"/>
      <point x="50" y="406" type="curve"/>
    </contour>
  </outline>
</glyph>
<glyph name="colon" format="1">
  <advance width="248"/>
  <unicode hex="003A"/>
  <outline>
    <contour>
      <point x="97" y="91"/>
      <point x="110" y="96"/>
      <point x="125" y="96" type="curve" smooth="yes"/>
      <point x="156" y="96"/>
      <point x="180" y="72"/>
      <point x="180" y="41" type="curve" smooth="yes"/>
      <point x="180" y="10"/>
      <point x="156" y="-14"/>
      <point x="125" y="-14" type="curve" smooth="yes"/>
      <point x="94" y="-14"/>
      <point x="70" y="10"/>
      <point x="70" y="41" type="curve" smooth="yes"/>
      <point x="70" y="56"/>
      <point x="75" y="69"/>
      <point x="86" y="80" type="curve" smooth="yes"/>
    </contour>
    <contour>
      <point x="97" y="368"/>
      <point x="110" y="373"/>
      <point x="125" y="373" type="curve" smooth="yes"/>
      <point x="156" y="373"/>
      <point x="180" y="347"/>
      <point x="180" y="318" type="curve" smooth="yes"/>
      <point x="180" y="289"/>
      <point x="156" y="263"/>
      <point x="125" y="263" type="curve" smooth="yes"/>
      <point x="94" y="263"/>
      <point x="70" y="289"/>
      <point x="70" y="318" type="curve" smooth="yes"/>
      <point x="70" y="333"/>
      <point x="75" y="346"/>
      <point x="86" y="357" type="curve" smooth="yes"/>
    </contour>
  </outline>
</glyph>
<glyph name="j" format="1">
  <advance width="213"/>
  <unicode hex="006A"/>
  <outline>
    <contour>
      <point x="52" y="594"/>
      <point x="73" y="614"/>
      <point x="102" y="614" type="curve" smooth="yes"/>
      <point x="131" y="614"/>
      <point x="152" y="593"/>
      <point x="152" y="564" type="curve" smooth="yes"/>
      <point x="152" y="535"/>
      <point x="132" y="514"/>
      <point x="101" y="513" type="curve"/>
      <point x="73" y="514"/>
      <point x="52" y="535"/>
      <point x="51" y="563" type="curve"/>
    </contour>
    <contour>
      <point x="144" y="91" type="line" smooth="yes"/>
      <point x="144" y="-16"/>
      <point x="134" y="-97"/>
      <point x="114" y="-152" type="curve" smooth="yes"/>
      <point x="89" y="-220"/>
      <point x="25" y="-287"/>
      <point x="-9" y="-287" type="curve" smooth="yes"/>
      <point x="-26" y="-287"/>
      <point x="-35" y="-283"/>
      <point x="-35" y="-276" type="curve" smooth="yes"/>
      <point x="-35" y="-269"/>
      <point x="-31" y="-264"/>
      <point x="-24" y="-260" type="curve"/>
      <point x="3" y="-253"/>
      <point x="26" y="-231"/>
      <point x="44" y="-193" type="curve" smooth="yes"/>
      <point x="62" y="-155"/>
      <point x="71" y="-68"/>
      <point x="71" y="69" type="curve" smooth="yes"/>
      <point x="71" y="279" type="line" smooth="yes"/>
      <point x="71" y="322"/>
      <point x="56" y="346"/>
      <point x="25" y="352" type="curve" smooth="yes"/>
      <point x="20" y="353"/>
      <point x="17" y="358"/>
      <point x="17" y="365" type="curve" smooth="yes"/>
      <point x="17" y="372"/>
      <point x="19" y="376"/>
      <point x="24" y="377" type="curve"/>
      <point x="57" y="385"/>
      <point x="91" y="401"/>
      <point x="126" y="424" type="curve" smooth="yes"/>
      <point x="137" y="431"/>
      <point x="143" y="434"/>
      <point x="144" y="434" type="curve" smooth="yes"/>
      <point x="149" y="434"/>
      <point x="151" y="432"/>
      <point x="151" y="429" type="curve"/>
      <point x="146" y="381"/>
      <point x="144" y="330"/>
      <point x="144" y="275" type="curve" smooth="yes"/>
    </contour>
  </outline>
</glyph>
<glyph name="n" format="1">
  <advance width="527"/>
  <unicode hex="006E"/>
  <outline>
    <contour>
      <point x="405" y="2" type="line"/>
      <point x="323" y="-3" type="line"/>
      <point x="310" y="-3"/>
      <point x="303" y="0"/>
      <point x="303" y="7" type="curve" smooth="yes"/>
      <point x="303" y="13"/>
      <point x="311" y="19"/>
      <point x="326" y="24" type="curve"/>
      <point x="327" y="24"/>
      <point x="328" y="24"/>
      <point x="330" y="25" type="curve"/>
      <point x="352" y="32"/>
      <point x="365" y="41"/>
      <point x="368" y="52" type="curve"/>
      <point x="369" y="55"/>
      <point x="369" y="59"/>
      <point x="369" y="62" type="curve" smooth="yes"/>
      <point x="369" y="272" type="line" smooth="yes"/>
      <point x="369" y="329"/>
      <point x="335" y="365"/>
      <point x="271" y="365" type="curve" smooth="yes"/>
      <point x="206" y="365"/>
      <point x="160" y="341"/>
      <point x="160" y="268" type="curve" smooth="yes"/>
      <point x="160" y="62" type="line" smooth="yes"/>
      <point x="160" y="35"/>
      <point x="178" y="32"/>
      <point x="206" y="23" type="curve"/>
      <point x="219" y="18"/>
      <point x="226" y="13"/>
      <point x="226" y="7" type="curve" smooth="yes"/>
      <point x="226" y="0"/>
      <point x="219" y="-3"/>
      <point x="206" y="-3" type="curve"/>
      <point x="125" y="2" type="line"/>
      <point x="44" y="-3" type="line"/>
      <point x="31" y="-3"/>
      <point x="24" y="0"/>
      <point x="24" y="7" type="curve" smooth="yes"/>
      <point x="24" y="19"/>
      <point x="56" y="27"/>
      <point x="60" y="28" type="curve"/>
      <point x="63" y="28"/>
      <point x="77" y="35"/>
      <point x="80" y="39" type="curve"/>
      <point x="87" y="46"/>
      <point x="90" y="54"/>
      <point x="90" y="62" type="curve" smooth="yes"/>
      <point x="90" y="277" type="line" smooth="yes"/>
      <point x="90" y="320"/>
      <point x="76" y="344"/>
      <point x="49" y="349" type="curve" smooth="yes"/>
      <point x="44" y="350"/>
      <point x="41" y="355"/>
      <point x="41" y="362" type="curve" smooth="yes"/>
      <point x="41" y="369"/>
      <point x="43" y="373"/>
      <point x="48" y="374" type="curve" smooth="yes"/>
      <point x="83" y="382"/>
      <point x="119" y="400"/>
      <point x="158" y="429" type="curve"/>
      <point x="159" y="430"/>
      <point x="160" y="430"/>
      <point x="162" y="430" type="curve" smooth="yes"/>
      <point x="163" y="430"/>
      <point x="165" y="427"/>
      <point x="167" y="421" type="curve"/>
      <point x="160" y="356" type="line"/>
      <point x="160" y="351"/>
      <point x="160" y="349"/>
      <point x="161" y="348" type="curve"/>
      <point x="198" y="379"/>
      <point x="269" y="414"/>
      <point x="329" y="414" type="curve" smooth="yes"/>
      <point x="389" y="414"/>
      <point x="439" y="354"/>
      <point x="439" y="275" type="curve" smooth="yes"/>
      <point x="439" y="62" type="line" smooth="yes"/>
      <point x="439" y="35"/>
      <point x="457" y="32"/>
      <point x="485" y="23" type="curve"/>
      <point x="498" y="18"/>
      <point x="505" y="13"/>
      <point x="505" y="7" type="curve" smooth="yes"/>
      <point x="505" y="0"/>
      <point x="498" y="-3"/>
      <point x="485" y="-3" type="curve"/>
    </contour>
  </outline>
</glyph>
<glyph name="p" format="1">
  <advance width="519"/>
  <unicode hex="0070"/>
  <outline>
    <contour>
      <point x="120" y="-280" type="line"/>
      <point x="40" y="-285" type="line"/>
      <point x="26" y="-285"/>
      <point x="19" y="-282"/>
      <point x="19" y="-275" type="curve" smooth="yes"/>
      <point x="19" y="-269"/>
      <point x="28" y="-263"/>
      <point x="47" y="-257" type="curve" smooth="yes"/>
      <point x="66" y="-251"/>
      <point x="77" y="-245"/>
      <point x="80" y="-238" type="curve"/>
      <point x="83" y="-232"/>
      <point x="85" y="-226"/>
      <point x="85" y="-220" type="curve" smooth="yes"/>
      <point x="85" y="287" type="line" smooth="yes"/>
      <point x="85" y="310"/>
      <point x="68" y="353"/>
      <point x="39" y="360" type="curve"/>
      <point x="34" y="361"/>
      <point x="31" y="366"/>
      <point x="31" y="373" type="curve" smooth="yes"/>
      <point x="31" y="380"/>
      <point x="33" y="384"/>
      <point x="38" y="385" type="curve"/>
      <point x="66" y="392"/>
      <point x="105" y="405"/>
      <point x="154" y="425" type="curve"/>
      <point x="155" y="426" type="line"/>
      <point x="156" y="426" type="line" smooth="yes"/>
      <point x="160" y="426"/>
      <point x="162" y="423"/>
      <point x="162" y="417" type="curve"/>
      <point x="157" y="357" type="line"/>
      <point x="157" y="352"/>
      <point x="157" y="349"/>
      <point x="158" y="348" type="curve"/>
      <point x="183" y="373"/>
      <point x="264" y="414"/>
      <point x="320" y="414" type="curve" smooth="yes"/>
      <point x="419" y="414"/>
      <point x="484" y="325"/>
      <point x="484" y="225" type="curve" smooth="yes"/>
      <point x="484" y="102"/>
      <point x="382" y="-14"/>
      <point x="259" y="-14" type="curve" smooth="yes"/>
      <point x="230" y="-14"/>
      <point x="178" y="1"/>
      <point x="159" y="18" type="curve"/>
      <point x="156" y="18"/>
      <point x="155" y="1"/>
      <point x="155" y="-33" type="curve" smooth="yes"/>
      <point x="155" y="-220" type="line" smooth="yes"/>
      <point x="155" y="-240"/>
      <point x="176" y="-247"/>
      <point x="184" y="-250" type="curve"/>
      <point x="187" y="-251"/>
      <point x="193" y="-253"/>
      <point x="200" y="-254" type="curve"/>
      <point x="224" y="-260"/>
      <point x="236" y="-267"/>
      <point x="236" y="-276" type="curve" smooth="yes"/>
      <point x="236" y="-282"/>
      <point x="229" y="-285"/>
      <point x="214" y="-285" type="curve"/>
    </contour>
    <contour>
      <point x="155" y="205" type="line" smooth="yes"/>
      <point x="155" y="141"/>
      <point x="152" y="70"/>
      <point x="184" y="40" type="curve" smooth="yes"/>
      <point x="200" y="25"/>
      <point x="230" y="17"/>
      <point x="274" y="17" type="curve" smooth="yes"/>
      <point x="325" y="17"/>
      <point x="370" y="61"/>
      <point x="390" y="110" type="curve" smooth="yes"/>
      <point x="399" y="134"/>
      <point x="404" y="163"/>
      <point x="404" y="197" type="curve" smooth="yes"/>
      <point x="404" y="264"/>
      <point x="383" y="317"/>
      <point x="352" y="340" type="curve"/>
      <point x="323" y="359"/>
      <point x="294" y="369"/>
      <point x="265" y="369" type="curve" smooth="yes"/>
      <point x="205" y="369"/>
      <point x="160" y="341"/>
      <point x="156" y="269" type="curve"/>
    </contour>
  </outline>
</glyph>
<glyph name="registered" format="1">
  <advance width="337"/>
  <unicode hex="00AE"/>
  <outline>
    <contour>
      <point x="205" y="622"/>
      <point x="184" y="630"/>
      <point x="160" y="630" type="curve" smooth="yes"/>
      <point x="112" y="630"/>
      <point x="73" y="591"/>
      <point x="73" y="543" type="curve" smooth="yes"/>
      <point x="73" y="495"/>
      <point x="112" y="456"/>
      <point x="160" y="456" type="curve" smooth="yes"/>
      <point x="208" y="456"/>
      <point x="247" y="495"/>
      <point x="247" y="543" type="curve" smooth="yes"/>
      <point x="247" y="567"/>
      <point x="239" y="588"/>
      <point x="222" y="605" type="curve" smooth="yes"/>
    </contour>
    <contour>
      <point x="106" y="640"/>
      <point x="131" y="650"/>
      <point x="160" y="650" type="curve" smooth="yes"/>
      <point x="219" y="650"/>
      <point x="267" y="602"/>
      <point x="267" y="543" type="curve" smooth="yes"/>
      <point x="267" y="484"/>
      <point x="219" y="436"/>
      <point x="160" y="436" type="curve" smooth="yes"/>
      <point x="101" y="436"/>
      <point x="53" y="484"/>
      <point x="53" y="543" type="curve" smooth="yes"/>
      <point x="53" y="572"/>
      <point x="64" y="598"/>
      <point x="85" y="619" type="curve" smooth="yes"/>
    </contour>
    <contour>
      <point x="166" y="551"/>
      <point x="176" y="558"/>
      <point x="176" y="568" type="curve" smooth="yes"/>
      <point x="176" y="578"/>
      <point x="168" y="589"/>
      <point x="159" y="589" type="curve" smooth="yes"/>
      <point x="152" y="589"/>
      <point x="148" y="586"/>
      <point x="148" y="580" type="curve" smooth="yes"/>
      <point x="148" y="557" type="line" smooth="yes"/>
      <point x="148" y="553"/>
      <point x="151" y="551"/>
      <point x="156" y="551" type="curve" smooth="yes"/>
    </contour>
    <contour>
      <point x="107" y="488" type="line" smooth="yes"/>
      <point x="106" y="488"/>
      <point x="106" y="490"/>
      <point x="106" y="493" type="curve" smooth="yes"/>
      <point x="106" y="496"/>
      <point x="106" y="497"/>
      <point x="107" y="497" type="curve"/>
      <point x="118" y="501"/>
      <point x="123" y="505"/>
      <point x="123" y="509" type="curve" smooth="yes"/>
      <point x="123" y="571" type="line" smooth="yes"/>
      <point x="123" y="577"/>
      <point x="119" y="581"/>
      <point x="111" y="584" type="curve"/>
      <point x="106" y="584"/>
      <point x="108" y="597"/>
      <point x="111" y="597" type="curve"/>
      <point x="128" y="601"/>
      <point x="143" y="603"/>
      <point x="157" y="603" type="curve" smooth="yes"/>
      <point x="185" y="603"/>
      <point x="201" y="592"/>
      <point x="201" y="569" type="curve" smooth="yes"/>
      <point x="201" y="558"/>
      <point x="195" y="550"/>
      <point x="182" y="547" type="curve"/>
      <point x="181" y="547"/>
      <point x="181" y="546"/>
      <point x="181" y="544" type="curve" smooth="yes"/>
      <point x="181" y="540"/>
      <point x="197" y="508"/>
      <point x="208" y="500" type="curve"/>
      <point x="215" y="493"/>
      <point x="219" y="488"/>
      <point x="219" y="487" type="curve" smooth="yes"/>
      <point x="219" y="486"/>
      <point x="215" y="485"/>
      <point x="207" y="485" type="curve" smooth="yes"/>
      <point x="188" y="485"/>
      <point x="173" y="499"/>
      <point x="164" y="528" type="curve"/>
      <point x="163" y="532"/>
      <point x="160" y="534"/>
      <point x="155" y="534" type="curve" smooth="yes"/>
      <point x="150" y="534"/>
      <point x="148" y="533"/>
      <point x="148" y="531" type="curve" smooth="yes"/>
      <point x="148" y="509" type="line" smooth="yes"/>
      <point x="148" y="504"/>
      <point x="153" y="500"/>
      <point x="163" y="498" type="curve"/>
      <point x="164" y="497"/>
      <point x="164" y="496"/>
      <point x="164" y="493" type="curve" smooth="yes"/>
      <point x="164" y="490"/>
      <point x="164" y="488"/>
      <point x="163" y="488" type="curve" smooth="yes"/>
    </contour>
  </outline>
</glyph>
<glyph name="questiondown" format="1">
  <advance width="355"/>
  <unicode hex="00BF"/>
  <outline>
    <contour>
      <point x="264" y="380"/>
      <point x="250" y="374"/>
      <point x="233" y="374" type="curve" smooth="yes"/>
      <point x="200" y="374"/>
      <point x="173" y="401"/>
      <point x="173" y="434" type="curve" smooth="yes"/>
      <point x="173" y="467"/>
      <point x="200" y="494"/>
      <point x="233" y="494" type="curve" smooth="yes"/>
      <point x="266" y="494"/>
      <point x="293" y="467"/>
      <point x="293" y="434" type="curve" smooth="yes"/>
      <point x="293" y="417"/>
      <point x="287" y="403"/>
      <point x="276" y="392" type="curve" smooth="yes"/>
    </contour>
    <contour>
      <point x="271" y="-89" type="line"/>
      <point x="292" y="-89"/>
      <point x="313" y="-119"/>
      <point x="313" y="-142" type="curve" smooth="yes"/>
      <point x="313" y="-165"/>
      <point x="290" y="-181"/>
      <point x="273" y="-181" type="curve" smooth="yes"/>
      <point x="196" y="-181"/>
      <point x="133" y="-109"/>
      <point x="96" y="-32" type="curve" smooth="yes"/>
      <point x="77" y="7"/>
      <point x="68" y="38"/>
      <point x="68" y="63" type="curve" smooth="yes"/>
      <point x="68" y="111"/>
      <point x="89" y="148"/>
      <point x="112" y="160" type="curve" smooth="yes"/>
      <point x="183" y="199"/>
      <point x="221" y="225"/>
      <point x="226" y="238" type="curve"/>
      <point x="229" y="245"/>
      <point x="231" y="257"/>
      <point x="232" y="274" type="curve"/>
      <point x="232" y="291"/>
      <point x="237" y="299"/>
      <point x="247" y="299" type="curve" smooth="yes"/>
      <point x="250" y="299"/>
      <point x="254" y="296"/>
      <point x="259" y="291" type="curve"/>
      <point x="268" y="279"/>
      <point x="285" y="223"/>
      <point x="285" y="187" type="curve" smooth="yes"/>
      <point x="285" y="150"/>
      <point x="250" y="127"/>
      <point x="198" y="100" type="curve" smooth="yes"/>
      <point x="148" y="75"/>
      <point x="123" y="49"/>
      <point x="123" y="22" type="curve" smooth="yes"/>
      <point x="123" y="-46"/>
      <point x="159" y="-92"/>
      <point x="224" y="-93" type="curve"/>
    </contour>
  </outline>
</glyph>
<glyph name="breve" format="1">
  <advance width="400"/>
  <unicode hex="02D8"/>
  <outline>
    <contour>
      <point x="315" y="645"/>
      <point x="355" y="715"/>
      <point x="355" y="798" type="curve"/>
      <point x="303" y="798" type="line"/>
      <point x="303" y="743"/>
      <point x="279" y="693"/>
      <point x="200" y="693" type="curve" smooth="yes"/>
      <point x="121" y="693"/>
      <point x="97" y="743"/>
      <point x="97" y="798" type="curve"/>
      <point x="45" y="798" type="line"/>
      <point x="45" y="715"/>
      <point x="85" y="645"/>
      <point x="200" y="645" type="curve"/>
    </contour>
  </outline>
</glyph>
<glyph name="knAnusvara" format="1">
  <advance width="524"/>
  <unicode hex="0C82"/>
  <outline>
    <contour>
      <point x="146" y="519"/>
      <point x="50" y="392"/>
      <point x="50" y="250" type="curve" smooth="yes"/>
      <point x="50" y="109"/>
      <point x="146" y="-14"/>
      <point x="262" y="-14" type="curve" smooth="yes"/>
      <point x="378" y="-14"/>
      <point x="474" y="109"/>
      <point x="474" y="250" type="curve" smooth="yes"/>
      <point x="474" y="392"/>
      <point x="379" y="519"/>
      <point x="263" y="519" type="curve" smooth="yes"/>
    </contour>
    <contour>
      <point x="357" y="441"/>
      <point x="438" y="369"/>
      <point x="438" y="254" type="curve" smooth="yes"/>
      <point x="438" y="144"/>
      <point x="347" y="71"/>
      <point x="262" y="71" type="curve" smooth="yes"/>
      <point x="177" y="71"/>
      <point x="87" y="144"/>
      <point x="87" y="259" type="curve" smooth="yes"/>
      <point x="87" y="369"/>
      <point x="168" y="441"/>
      <point x="263" y="441" type="curve" smooth="yes"/>
    </contour>
  </outline>
</glyph>
<glyph name="knA" format="1">
  <advance width="780"/>
  <unicode hex="0C85"/>
  <outline>
    <contour>
      <point x="99" y="171"/>
      <point x="199" y="71"/>
      <point x="390" y="71" type="curve" smooth="yes"/>
      <point x="580" y="71"/>
      <point x="682" y="171"/>
      <point x="682" y="294" type="curve" smooth="yes"/>
      <point x="682" y="389"/>
      <point x="638" y="454"/>
      <point x="560" y="454" type="curve" smooth="yes"/>
      <point x="518" y="454"/>
      <point x="494" y="437"/>
      <point x="494" y="405" type="curve" smooth="yes"/>
      <point x="494" y="379"/>
      <point x="515" y="354"/>
      <point x="560" y="354" type="curve" smooth="yes"/>
      <point x="613" y="354" type="line"/>
      <point x="613" y="283" type="line"/>
      <point x="383" y="283" type="line"/>
      <point x="383" y="354" type="line"/>
      <point x="478" y="354" type="line"/>
      <point x="469" y="364"/>
      <point x="454" y="392"/>
      <point x="454" y="416" type="curve" smooth="yes"/>
      <point x="454" y="471"/>
      <point x="481" y="520"/>
      <point x="555" y="520" type="curve" smooth="yes"/>
      <point x="649" y="520"/>
      <point x="721" y="414"/>
      <point x="721" y="283" type="curve" smooth="yes"/>
      <point x="721" y="104"/>
      <point x="601" y="-14"/>
      <point x="390" y="-14" type="curve" smooth="yes"/>
      <point x="179" y="-14"/>
      <point x="59" y="104"/>
      <point x="59" y="283" type="curve" smooth="yes"/>
      <point x="59" y="414"/>
      <point x="127" y="519"/>
      <point x="229" y="519" type="curve" smooth="yes"/>
      <point x="300" y="519"/>
      <point x="336" y="457"/>
      <point x="336" y="391" type="curve" smooth="yes"/>
      <point x="336" y="325"/>
      <point x="294" y="273"/>
      <point x="231" y="273" type="curve" smooth="yes"/>
      <point x="173" y="273"/>
      <point x="130" y="308"/>
      <point x="130" y="381" type="curve" smooth="yes"/>
      <point x="130" y="394"/>
      <point x="131" y="407"/>
      <point x="134" y="429" type="curve"/>
      <point x="156" y="497" type="line"/>
      <point x="171" y="501"/>
      <point x="176" y="475"/>
      <point x="165" y="450" type="curve"/>
      <point x="162" y="440"/>
      <point x="158" y="419"/>
      <point x="158" y="408" type="curve" smooth="yes"/>
      <point x="158" y="365"/>
      <point x="189" y="344"/>
      <point x="231" y="344" type="curve" smooth="yes"/>
      <point x="278" y="344"/>
      <point x="306" y="365"/>
      <point x="306" y="401" type="curve" smooth="yes"/>
      <point x="306" y="440"/>
      <point x="272" y="454"/>
      <point x="234" y="454" type="curve" smooth="yes"/>
      <point x="141" y="454"/>
      <point x="99" y="387"/>
      <point x="99" y="294" type="curve" smooth="yes"/>
    </contour>
  </outline>
</glyph>
<glyph name="knUU" format="1">
  <advance width="1408"/>
  <unicode hex="0C8A"/>
  <outline>
    <contour>
      <point x="778" y="-14" type="curve" smooth="yes"/>
      <point x="878" y="-14"/>
      <point x="921" y="73"/>
      <point x="921" y="231" type="curve" smooth="yes"/>
      <point x="921" y="371"/>
      <point x="997" y="441"/>
      <point x="1104" y="441" type="curve" smooth="yes"/>
      <point x="1219" y="441"/>
      <point x="1318" y="363"/>
      <point x="1318" y="235" type="curve" smooth="yes"/>
      <point x="1318" y="129"/>
      <point x="1256" y="68"/>
      <point x="1166" y="68" type="curve" smooth="yes"/>
      <point x="1093" y="68"/>
      <point x="1049" y="111"/>
      <point x="1048" y="169" type="curve" smooth="yes"/>
      <point x="1047" y="211"/>
      <point x="1069" y="237"/>
      <point x="1081" y="237" type="curve" smooth="yes"/>
      <point x="1086" y="237"/>
      <point x="1088" y="233"/>
      <point x="1087" y="227" type="curve" smooth="yes"/>
      <point x="1088" y="191"/>
      <point x="1109" y="165"/>
      <point x="1142" y="165" type="curve" smooth="yes"/>
      <point x="1177" y="165"/>
      <point x="1203" y="194"/>
      <point x="1202" y="230" type="curve" smooth="yes"/>
      <point x="1203" y="262"/>
      <point x="1178" y="299"/>
      <point x="1123" y="299" type="curve" smooth="yes"/>
      <point x="1051" y="299"/>
      <point x="1011" y="235"/>
      <point x="1010" y="157" type="curve" smooth="yes"/>
      <point x="1011" y="58"/>
      <point x="1071" y="-14"/>
      <point x="1167" y="-14" type="curve" smooth="yes"/>
      <point x="1279" y="-14"/>
      <point x="1353" y="92"/>
      <point x="1353" y="238" type="curve" smooth="yes"/>
      <point x="1353" y="402"/>
      <point x="1243" y="519"/>
      <point x="1095" y="519" type="curve" smooth="yes"/>
      <point x="973" y="519"/>
      <point x="884" y="423"/>
      <point x="884" y="248" type="curve" smooth="yes"/>
      <point x="884" y="116"/>
      <point x="848" y="71"/>
      <point x="775" y="71" type="curve" smooth="yes"/>
      <point x="705" y="71"/>
      <point x="671" y="138"/>
      <point x="671" y="206" type="curve" smooth="yes"/>
      <point x="671" y="256"/>
      <point x="680" y="312"/>
      <point x="680" y="375" type="curve" smooth="yes"/>
      <point x="680" y="453"/>
      <point x="636" y="519"/>
      <point x="555" y="519" type="curve" smooth="yes"/>
      <point x="468" y="519"/>
      <point x="418" y="453"/>
      <point x="418" y="368" type="curve" smooth="yes"/>
      <point x="418" y="312"/>
      <point x="435" y="256"/>
      <point x="435" y="189" type="curve" smooth="yes"/>
      <point x="435" y="118"/>
      <point x="378" y="71"/>
      <point x="320" y="71" type="curve" smooth="yes"/>
      <point x="189" y="71"/>
      <point x="99" y="171"/>
      <point x="99" y="294" type="curve" smooth="yes"/>
      <point x="99" y="387"/>
      <point x="141" y="454"/>
      <point x="234" y="454" type="curve" smooth="yes"/>
      <point x="272" y="454"/>
      <point x="306" y="440"/>
      <point x="306" y="401" type="curve" smooth="yes"/>
      <point x="306" y="365"/>
      <point x="278" y="344"/>
      <point x="231" y="344" type="curve" smooth="yes"/>
      <point x="189" y="344"/>
      <point x="158" y="365"/>
      <point x="158" y="408" type="curve" smooth="yes"/>
      <point x="158" y="419"/>
      <point x="162" y="440"/>
      <point x="165" y="450" type="curve"/>
      <point x="176" y="475"/>
      <point x="171" y="501"/>
      <point x="156" y="497" type="curve"/>
      <point x="134" y="429" type="line"/>
      <point x="131" y="407"/>
      <point x="130" y="394"/>
      <point x="130" y="381" type="curve" smooth="yes"/>
      <point x="130" y="308"/>
      <point x="173" y="273"/>
      <point x="231" y="273" type="curve" smooth="yes"/>
      <point x="294" y="273"/>
      <point x="336" y="325"/>
      <point x="336" y="391" type="curve" smooth="yes"/>
      <point x="336" y="457"/>
      <point x="300" y="519"/>
      <point x="229" y="519" type="curve" smooth="yes"/>
      <point x="127" y="519"/>
      <point x="59" y="414"/>
      <point x="59" y="283" type="curve" smooth="yes"/>
      <point x="59" y="104"/>
      <point x="167" y="-14"/>
      <point x="318" y="-14" type="curve" smooth="yes"/>
      <point x="386" y="-14"/>
      <point x="472" y="42"/>
      <point x="472" y="150" type="curve" smooth="yes"/>
      <point x="472" y="229"/>
      <point x="460" y="284"/>
      <point x="460" y="339" type="curve" smooth="yes"/>
      <point x="460" y="396"/>
      <point x="491" y="441"/>
      <point x="550" y="441" type="curve" smooth="yes"/>
      <point x="604" y="441"/>
      <point x="638" y="406"/>
      <point x="638" y="339" type="curve" smooth="yes"/>
      <point x="638" y="276"/>
      <point x="633" y="220"/>
      <point x="633" y="150" type="curve" smooth="yes"/>
      <point x="633" y="65"/>
      <point x="673" y="-14"/>
    </contour>
  </outline>
</glyph>
<glyph name="knAI" format="1">
  <advance width="742"/>
  <unicode hex="0C90"/>
  <outline>
    <contour>
      <point x="689" y="241" type="curve" smooth="yes"/>
      <point x="689" y="388"/>
      <point x="627" y="519"/>
      <point x="513" y="519" type="curve" smooth="yes"/>
      <point x="444" y="519"/>
      <point x="377" y="461"/>
      <point x="354" y="377" type="curve"/>
      <point x="352" y="377" type="line"/>
      <point x="329" y="461"/>
      <point x="259" y="519"/>
      <point x="190" y="519" type="curve" smooth="yes"/>
      <point x="102" y="519"/>
      <point x="49" y="428"/>
      <point x="49" y="343" type="curve"/>
      <point x="72" y="332" type="line"/>
      <point x="87" y="399"/>
      <point x="124" y="444"/>
      <point x="194" y="444" type="curve" smooth="yes"/>
      <point x="279" y="444"/>
      <point x="335" y="358"/>
      <point x="349" y="283" type="curve"/>
      <point x="358" y="283" type="line"/>
      <point x="370" y="357"/>
      <point x="426" y="444"/>
      <point x="509" y="444" type="curve" smooth="yes"/>
      <point x="599" y="444"/>
      <point x="654" y="363"/>
      <point x="654" y="247" type="curve" smooth="yes"/>
      <point x="654" y="138"/>
      <point x="598" y="71"/>
      <point x="510" y="71" type="curve"/>
      <point x="437" y="71"/>
      <point x="371" y="146"/>
      <point x="358" y="221" type="curve"/>
      <point x="349" y="221" type="line"/>
      <point x="335" y="145"/>
      <point x="270" y="71"/>
      <point x="197" y="71" type="curve" smooth="yes"/>
      <point x="146" y="71"/>
      <point x="111" y="104"/>
      <point x="109" y="156" type="curve" smooth="yes"/>
      <point x="111" y="201"/>
      <point x="140" y="227"/>
      <point x="175" y="227" type="curve" smooth="yes"/>
      <point x="207" y="227"/>
      <point x="232" y="217"/>
      <point x="241" y="193" type="curve"/>
      <point x="257" y="208" type="line"/>
      <point x="246" y="250"/>
      <point x="222" y="287"/>
      <point x="172" y="287" type="curve" smooth="yes"/>
      <point x="114" y="287"/>
      <point x="71" y="232"/>
      <point x="69" y="143" type="curve" smooth="yes"/>
      <point x="71" y="56"/>
      <point x="120" y="-14"/>
      <point x="192" y="-14" type="curve" smooth="yes"/>
      <point x="262" y="-14"/>
      <point x="330" y="43"/>
      <point x="353" y="126" type="curve"/>
      <point x="355" y="126" type="line"/>
      <point x="378" y="43"/>
      <point x="446" y="-14"/>
      <point x="516" y="-14" type="curve"/>
      <point x="627" y="-14"/>
      <point x="689" y="88"/>
    </contour>
  </outline>
</glyph>
<glyph name="knGHA" format="1">
  <advance width="831"/>
  <unicode hex="0C98"/>
  <outline>
    <contour>
      <point x="309" y="390"/>
      <point x="284" y="363"/>
      <point x="284" y="331" type="curve" smooth="yes"/>
      <point x="284" y="298"/>
      <point x="309" y="271"/>
      <point x="343" y="271" type="curve" smooth="yes"/>
      <point x="376" y="271"/>
      <point x="403" y="298"/>
      <point x="403" y="331" type="curve" smooth="yes"/>
      <point x="403" y="363"/>
      <point x="376" y="390"/>
      <point x="343" y="390" type="curve" smooth="yes"/>
    </contour>
    <contour>
      <point x="696" y="429" type="line"/>
      <point x="739" y="399"/>
      <point x="757" y="367"/>
      <point x="757" y="337" type="curve" smooth="yes"/>
      <point x="757" y="301"/>
      <point x="736" y="275"/>
      <point x="703" y="275" type="curve" smooth="yes"/>
      <point x="662" y="275"/>
      <point x="629" y="298"/>
      <point x="585" y="390" type="curve"/>
      <point x="579" y="372" type="line"/>
      <point x="619" y="228"/>
      <point x="660" y="201"/>
      <point x="716" y="201" type="curve" smooth="yes"/>
      <point x="766" y="201"/>
      <point x="806" y="248"/>
      <point x="806" y="308" type="curve" smooth="yes"/>
      <point x="806" y="362"/>
      <point x="777" y="411"/>
      <point x="715" y="449" type="curve"/>
    </contour>
    <contour>
      <point x="395" y="-117"/>
      <point x="366" y="-104"/>
      <point x="352" y="16" type="curve"/>
      <point x="336" y="16" type="line"/>
      <point x="323" y="-104"/>
      <point x="292" y="-117"/>
      <point x="292" y="-161" type="curve" smooth="yes"/>
      <point x="292" y="-197"/>
      <point x="317" y="-220"/>
      <point x="344" y="-220" type="curve" smooth="yes"/>
      <point x="370" y="-220"/>
      <point x="395" y="-201"/>
      <point x="395" y="-161" type="curve" smooth="yes"/>
    </contour>
    <contour>
      <point x="597" y="644" type="line"/>
      <point x="621" y="635"/>
      <point x="643" y="610"/>
      <point x="643" y="576" type="curve" smooth="yes"/>
      <point x="643" y="536"/>
      <point x="612" y="509"/>
      <point x="551" y="509" type="curve" smooth="yes"/>
      <point x="60" y="509" type="line"/>
      <point x="60" y="434" type="line"/>
      <point x="551" y="434" type="line" smooth="yes"/>
      <point x="632" y="434"/>
      <point x="686" y="480"/>
      <point x="686" y="552" type="curve" smooth="yes"/>
      <point x="686" y="607"/>
      <point x="655" y="648"/>
      <point x="612" y="664" type="curve"/>
    </contour>
    <contour>
      <point x="183" y="-14" type="curve"/>
      <point x="251" y="-14"/>
      <point x="321" y="43"/>
      <point x="344" y="126" type="curve"/>
      <point x="346" y="126" type="line"/>
      <point x="369" y="43"/>
      <point x="438" y="-14"/>
      <point x="506" y="-14" type="curve" smooth="yes"/>
      <point x="598" y="-14"/>
      <point x="635" y="84"/>
      <point x="635" y="174" type="curve" smooth="yes"/>
      <point x="635" y="251"/>
      <point x="618" y="335"/>
      <point x="585" y="390" type="curve"/>
      <point x="562" y="372" type="line"/>
      <point x="582" y="330"/>
      <point x="599" y="270"/>
      <point x="599" y="202" type="curve" smooth="yes"/>
      <point x="599" y="141"/>
      <point x="569" y="71"/>
      <point x="493" y="71" type="curve" smooth="yes"/>
      <point x="428" y="71"/>
      <point x="363" y="145"/>
      <point x="349" y="221" type="curve"/>
      <point x="340" y="221" type="line"/>
      <point x="326" y="145"/>
      <point x="261" y="71"/>
      <point x="186" y="71" type="curve"/>
      <point x="135" y="71"/>
      <point x="100" y="104"/>
      <point x="100" y="156" type="curve" smooth="yes"/>
      <point x="100" y="201"/>
      <point x="129" y="227"/>
      <point x="166" y="227" type="curve" smooth="yes"/>
      <point x="196" y="227"/>
      <point x="221" y="217"/>
      <point x="232" y="193" type="curve"/>
      <point x="248" y="208" type="line"/>
      <point x="235" y="250"/>
      <point x="211" y="287"/>
      <point x="163" y="287" type="curve" smooth="yes"/>
      <point x="103" y="287"/>
      <point x="60" y="232"/>
      <point x="60" y="143" type="curve" smooth="yes"/>
      <point x="60" y="56"/>
      <point x="109" y="-14"/>
    </contour>
  </outline>
</glyph>
<glyph name="knNA" format="1">
  <advance width="649"/>
  <unicode hex="0CA8"/>
  <outline>
    <contour>
      <point x="381" y="435" type="line"/>
      <point x="518" y="392"/>
      <point x="584" y="284"/>
      <point x="584" y="176" type="curve" smooth="yes"/>
      <point x="584" y="72"/>
      <point x="521" y="-14"/>
      <point x="441" y="-14" type="curve" smooth="yes"/>
      <point x="287" y="-14"/>
      <point x="357" y="212"/>
      <point x="199" y="212" type="curve" smooth="yes"/>
      <point x="143" y="212"/>
      <point x="110" y="171"/>
      <point x="110" y="112" type="curve" smooth="yes"/>
      <point x="110" y="73"/>
      <point x="142" y="27"/>
      <point x="193" y="10" type="curve" smooth="yes"/>
      <point x="218" y="1"/>
      <point x="234" y="-20"/>
      <point x="234" y="-43" type="curve" smooth="yes"/>
      <point x="234" y="-66"/>
      <point x="204" y="-75"/>
      <point x="181" y="-61" type="curve" smooth="yes"/>
      <point x="115" y="-23"/>
      <point x="75" y="54"/>
      <point x="75" y="140" type="curve" smooth="yes"/>
      <point x="75" y="224"/>
      <point x="134" y="294"/>
      <point x="200" y="294" type="curve" smooth="yes"/>
      <point x="347" y="294"/>
      <point x="307" y="71"/>
      <point x="441" y="71" type="curve" smooth="yes"/>
      <point x="493" y="71"/>
      <point x="536" y="116"/>
      <point x="536" y="188" type="curve" smooth="yes"/>
      <point x="536" y="311"/>
      <point x="435" y="398"/>
      <point x="289" y="432" type="curve"/>
    </contour>
    <contour>
      <point x="430" y="425" type="curve" smooth="yes"/>
      <point x="75" y="425" type="line"/>
      <point x="75" y="508" type="line"/>
      <point x="430" y="508" type="line" smooth="yes"/>
      <point x="482" y="508"/>
      <point x="513" y="537"/>
      <point x="513" y="578" type="curve" smooth="yes"/>
      <point x="513" y="600"/>
      <point x="503" y="625"/>
      <point x="476" y="643" type="curve"/>
      <point x="491" y="663" type="line"/>
      <point x="543" y="636"/>
      <point x="566" y="594"/>
      <point x="566" y="549" type="curve" smooth="yes"/>
      <point x="566" y="480"/>
      <point x="509" y="425"/>
    </contour>
  </outline>
</glyph>
<glyph name="knRRA" format="1">
  <advance width="812"/>
  <unicode hex="0CB1"/>
  <outline>
    <contour>
      <point x="569" y="-14" type="curve" smooth="yes"/>
      <point x="675" y="-14"/>
      <point x="752" y="82"/>
      <point x="752" y="261" type="curve" smooth="yes"/>
      <point x="752" y="392"/>
      <point x="684" y="519"/>
      <point x="582" y="519" type="curve" smooth="yes"/>
      <point x="511" y="519"/>
      <point x="475" y="457"/>
      <point x="475" y="391" type="curve" smooth="yes"/>
      <point x="475" y="325"/>
      <point x="517" y="273"/>
      <point x="580" y="273" type="curve"/>
      <point x="580" y="344" type="line"/>
      <point x="533" y="344"/>
      <point x="505" y="365"/>
      <point x="505" y="401" type="curve" smooth="yes"/>
      <point x="505" y="440"/>
      <point x="539" y="454"/>
      <point x="577" y="454" type="curve" smooth="yes"/>
      <point x="670" y="454"/>
      <point x="712" y="365"/>
      <point x="712" y="272" type="curve" smooth="yes"/>
      <point x="712" y="149"/>
      <point x="655" y="71"/>
      <point x="564" y="71" type="curve" smooth="yes"/>
      <point x="489" y="71"/>
      <point x="422" y="146"/>
      <point x="409" y="221" type="curve"/>
      <point x="400" y="221" type="line"/>
      <point x="386" y="145"/>
      <point x="322" y="71"/>
      <point x="247" y="71" type="curve" smooth="yes"/>
      <point x="156" y="71"/>
      <point x="99" y="149"/>
      <point x="99" y="272" type="curve" smooth="yes"/>
      <point x="99" y="365"/>
      <point x="141" y="454"/>
      <point x="234" y="454" type="curve" smooth="yes"/>
      <point x="272" y="454"/>
      <point x="306" y="440"/>
      <point x="306" y="401" type="curve" smooth="yes"/>
      <point x="306" y="365"/>
      <point x="278" y="344"/>
      <point x="231" y="344" type="curve"/>
      <point x="231" y="273" type="line"/>
      <point x="294" y="273"/>
      <point x="336" y="325"/>
      <point x="336" y="391" type="curve" smooth="yes"/>
      <point x="336" y="457"/>
      <point x="300" y="519"/>
      <point x="229" y="519" type="curve" smooth="yes"/>
      <point x="127" y="519"/>
      <point x="59" y="392"/>
      <point x="59" y="261" type="curve" smooth="yes"/>
      <point x="59" y="82"/>
      <point x="136" y="-14"/>
      <point x="247" y="-14" type="curve" smooth="yes"/>
      <point x="317" y="-14"/>
      <point x="381" y="43"/>
      <point x="404" y="126" type="curve"/>
      <point x="406" y="126" type="line"/>
      <point x="429" y="43"/>
      <point x="499" y="-14"/>
    </contour>
    <contour>
      <point x="182" y="344" type="line"/>
      <point x="182" y="273" type="line"/>
      <point x="630" y="273" type="line"/>
      <point x="630" y="344" type="line"/>
    </contour>
  </outline>
</glyph>
<glyph name="knLLA" format="1">
  <advance width="630"/>
  <unicode hex="0CB3"/>
  <outline>
    <contour>
      <point x="80" y="422"/>
      <point x="146" y="454"/>
      <point x="214" y="454" type="curve" smooth="yes"/>
      <point x="265" y="454"/>
      <point x="280" y="430"/>
      <point x="280" y="413" type="curve" smooth="yes"/>
      <point x="280" y="390"/>
      <point x="260" y="373"/>
      <point x="221" y="373" type="curve" smooth="yes"/>
      <point x="178" y="373"/>
      <point x="158" y="394"/>
      <point x="158" y="427" type="curve" smooth="yes"/>
      <point x="158" y="450"/>
      <point x="163" y="471"/>
      <point x="170" y="477" type="curve"/>
      <point x="146" y="482" type="line"/>
      <point x="134" y="460"/>
      <point x="128" y="436"/>
      <point x="128" y="410" type="curve" smooth="yes"/>
      <point x="128" y="350"/>
      <point x="164" y="310"/>
      <point x="220" y="310" type="curve" smooth="yes"/>
      <point x="286" y="310"/>
      <point x="310" y="363"/>
      <point x="310" y="414" type="curve" smooth="yes"/>
      <point x="310" y="467"/>
      <point x="277" y="519"/>
      <point x="207" y="519" type="curve" smooth="yes"/>
      <point x="110" y="519"/>
      <point x="45" y="460"/>
      <point x="45" y="363" type="curve" smooth="yes"/>
      <point x="45" y="107"/>
      <point x="406" y="207"/>
      <point x="406" y="109" type="curve" smooth="yes"/>
      <point x="406" y="83"/>
      <point x="373" y="71"/>
      <point x="336" y="71" type="curve" smooth="yes"/>
      <point x="293" y="71"/>
      <point x="261" y="85"/>
      <point x="261" y="112" type="curve" smooth="yes"/>
      <point x="261" y="203"/>
      <point x="582" y="186"/>
      <point x="582" y="354" type="curve" smooth="yes"/>
      <point x="582" y="434"/>
      <point x="509" y="471"/>
      <point x="448" y="471" type="curve"/>
      <point x="439" y="434" type="line"/>
      <point x="509" y="434"/>
      <point x="547" y="400"/>
      <point x="547" y="355" type="curve" smooth="yes"/>
      <point x="547" y="211"/>
      <point x="215" y="246"/>
      <point x="215" y="86" type="curve" smooth="yes"/>
      <point x="215" y="28"/>
      <point x="260" y="-14"/>
      <point x="331" y="-14" type="curve"/>
      <point x="398" y="-14"/>
      <point x="442" y="34"/>
      <point x="442" y="97" type="curve" smooth="yes"/>
      <point x="442" y="301"/>
      <point x="80" y="191"/>
      <point x="80" y="363" type="curve" smooth="yes"/>
    </contour>
    <contour>
      <point x="531" y="644" type="line"/>
      <point x="555" y="635"/>
      <point x="577" y="610"/>
      <point x="577" y="576" type="curve" smooth="yes"/>
      <point x="577" y="536"/>
      <point x="546" y="509"/>
      <point x="485" y="509" type="curve" smooth="yes"/>
      <point x="404" y="509" type="line"/>
      <point x="404" y="434" type="line"/>
      <point x="485" y="434" type="line" smooth="yes"/>
      <point x="566" y="434"/>
      <point x="620" y="480"/>
      <point x="620" y="552" type="curve" smooth="yes"/>
      <point x="620" y="607"/>
      <point x="589" y="648"/>
      <point x="546" y="664" type="curve"/>
    </contour>
  </outline>
</glyph>
<glyph name="knHA" format="1">
  <advance width="724"/>
  <unicode hex="0CB9"/>
  <outline>
    <contour>
      <point x="579" y="644" type="line"/>
      <point x="603" y="635"/>
      <point x="625" y="610"/>
      <point x="625" y="576" type="curve" smooth="yes"/>
      <point x="625" y="536"/>
      <point x="594" y="509"/>
      <point x="533" y="509" type="curve" smooth="yes"/>
      <point x="55" y="509" type="line"/>
      <point x="55" y="434" type="line"/>
      <point x="533" y="434" type="line" smooth="yes"/>
      <point x="614" y="434"/>
      <point x="668" y="480"/>
      <point x="668" y="552" type="curve" smooth="yes"/>
      <point x="668" y="607"/>
      <point x="637" y="648"/>
      <point x="594" y="664" type="curve"/>
    </contour>
    <contour>
      <point x="229" y="435" type="line"/>
      <point x="311" y="427"/>
      <point x="340" y="363"/>
      <point x="340" y="269" type="curve"/>
      <point x="380" y="234" type="line"/>
      <point x="380" y="381"/>
      <point x="345" y="448"/>
      <point x="229" y="470" type="curve"/>
    </contour>
    <contour>
      <point x="428" y="340"/>
      <point x="386" y="302"/>
      <point x="359" y="247" type="curve"/>
      <point x="356" y="99" type="line"/>
      <point x="382" y="25"/>
      <point x="435" y="-14"/>
      <point x="503" y="-14" type="curve" smooth="yes"/>
      <point x="598" y="-14"/>
      <point x="669" y="64"/>
      <point x="669" y="162" type="curve" smooth="yes"/>
      <point x="669" y="261"/>
      <point x="598" y="340"/>
      <point x="503" y="340" type="curve" smooth="yes"/>
    </contour>
    <contour>
      <point x="126" y="340"/>
      <point x="55" y="261"/>
      <point x="55" y="162" type="curve" smooth="yes"/>
      <point x="55" y="64"/>
      <point x="126" y="-14"/>
      <point x="221" y="-14" type="curve" smooth="yes"/>
      <point x="289" y="-14"/>
      <point x="342" y="25"/>
      <point x="368" y="99" type="curve"/>
      <point x="365" y="247" type="line"/>
      <point x="338" y="302"/>
      <point x="296" y="340"/>
      <point x="221" y="340" type="curve" smooth="yes"/>
    </contour>
    <contour>
      <point x="289" y="305"/>
      <point x="341" y="259"/>
      <point x="341" y="187" type="curve" smooth="yes"/>
      <point x="341" y="113"/>
      <point x="288" y="71"/>
      <point x="221" y="71" type="curve" smooth="yes"/>
      <point x="159" y="71"/>
      <point x="105" y="113"/>
      <point x="105" y="187" type="curve" smooth="yes"/>
      <point x="105" y="259"/>
      <point x="159" y="305"/>
      <point x="221" y="305" type="curve" smooth="yes"/>
    </contour>
    <contour>
      <point x="565" y="305"/>
      <point x="619" y="259"/>
      <point x="619" y="187" type="curve" smooth="yes"/>
      <point x="619" y="113"/>
      <point x="564" y="71"/>
      <point x="497" y="71" type="curve" smooth="yes"/>
      <point x="435" y="71"/>
      <point x="383" y="113"/>
      <point x="383" y="187" type="curve" smooth="yes"/>
      <point x="383" y="259"/>
      <point x="435" y="305"/>
      <point x="497" y="305" type="curve" smooth="yes"/>
    </contour>
  </outline>
</glyph>
<glyph name="knmAA" format="1">
  <advance width="445"/>
  <unicode hex="0CBE"/>
  <outline>
    <contour>
      <point x="385" y="239" type="curve" smooth="yes"/>
      <point x="385" y="390"/>
      <point x="315" y="509"/>
      <point x="77" y="509" type="curve" smooth="yes"/>
      <point x="-200" y="509" type="line"/>
      <point x="-200" y="434" type="line"/>
      <point x="86" y="434" type="line" smooth="yes"/>
      <point x="280" y="434"/>
      <point x="350" y="346"/>
      <point x="350" y="236" type="curve" smooth="yes"/>
      <point x="350" y="130"/>
      <point x="288" y="69"/>
      <point x="198" y="69" type="curve" smooth="yes"/>
      <point x="125" y="69"/>
      <point x="81" y="112"/>
      <point x="80" y="170" type="curve" smooth="yes"/>
      <point x="79" y="212"/>
      <point x="101" y="238"/>
      <point x="113" y="238" type="curve" smooth="yes"/>
      <point x="118" y="238"/>
      <point x="120" y="234"/>
      <point x="119" y="228" type="curve" smooth="yes"/>
      <point x="120" y="192"/>
      <point x="141" y="166"/>
      <point x="174" y="166" type="curve" smooth="yes"/>
      <point x="209" y="166"/>
      <point x="235" y="195"/>
      <point x="234" y="231" type="curve" smooth="yes"/>
      <point x="235" y="263"/>
      <point x="210" y="300"/>
      <point x="155" y="300" type="curve" smooth="yes"/>
      <point x="83" y="300"/>
      <point x="43" y="236"/>
      <point x="42" y="158" type="curve" smooth="yes"/>
      <point x="43" y="59"/>
      <point x="103" y="-13"/>
      <point x="199" y="-13" type="curve" smooth="yes"/>
      <point x="311" y="-13"/>
      <point x="385" y="93"/>
    </contour>
  </outline>
</glyph>
<glyph name="knmUU" format="1">
  <advance width="708"/>
  <unicode hex="0CC2"/>
  <outline>
    <contour>
      <point x="618" y="235" type="curve" smooth="yes"/>
      <point x="618" y="129"/>
      <point x="556" y="68"/>
      <point x="466" y="68" type="curve" smooth="yes"/>
      <point x="393" y="68"/>
      <point x="349" y="111"/>
      <point x="348" y="169" type="curve" smooth="yes"/>
      <point x="347" y="211"/>
      <point x="369" y="237"/>
      <point x="381" y="237" type="curve" smooth="yes"/>
      <point x="386" y="237"/>
      <point x="388" y="233"/>
      <point x="387" y="227" type="curve" smooth="yes"/>
      <point x="388" y="191"/>
      <point x="409" y="165"/>
      <point x="442" y="165" type="curve" smooth="yes"/>
      <point x="477" y="165"/>
      <point x="503" y="194"/>
      <point x="502" y="230" type="curve" smooth="yes"/>
      <point x="503" y="262"/>
      <point x="478" y="299"/>
      <point x="423" y="299" type="curve" smooth="yes"/>
      <point x="351" y="299"/>
      <point x="311" y="235"/>
      <point x="310" y="157" type="curve" smooth="yes"/>
      <point x="311" y="58"/>
      <point x="371" y="-14"/>
      <point x="467" y="-14" type="curve" smooth="yes"/>
      <point x="579" y="-14"/>
      <point x="653" y="92"/>
      <point x="653" y="238" type="curve" smooth="yes"/>
      <point x="653" y="402"/>
      <point x="543" y="519"/>
      <point x="395" y="519" type="curve" smooth="yes"/>
      <point x="273" y="519"/>
      <point x="184" y="423"/>
      <point x="184" y="248" type="curve" smooth="yes"/>
      <point x="184" y="116"/>
      <point x="148" y="71"/>
      <point x="75" y="71" type="curve" smooth="yes"/>
      <point x="-6" y="71"/>
      <point x="-56" y="145"/>
      <point x="-85" y="222" type="curve"/>
      <point x="-102" y="186" type="line"/>
      <point x="-78" y="88"/>
      <point x="0" y="-14"/>
      <point x="78" y="-14" type="curve" smooth="yes"/>
      <point x="188" y="-14"/>
      <point x="221" y="73"/>
      <point x="221" y="231" type="curve" smooth="yes"/>
      <point x="221" y="371"/>
      <point x="297" y="441"/>
      <point x="404" y="441" type="curve" smooth="yes"/>
      <point x="519" y="441"/>
      <point x="618" y="363"/>
    </contour>
  </outline>
</glyph>
<glyph name="knmAI" format="1">
  <advance width="101"/>
  <unicode hex="0CC8"/>
  <outline>
    <contour>
      <point x="-255" y="685"/>
      <point x="-283" y="657"/>
      <point x="-283" y="625" type="curve" smooth="yes"/>
      <point x="-283" y="592"/>
      <point x="-260" y="571"/>
      <point x="-226" y="571" type="curve" smooth="yes"/>
      <point x="-192" y="571"/>
      <point x="-171" y="597"/>
      <point x="-171" y="633" type="curve" smooth="yes"/>
      <point x="-171" y="639"/>
      <point x="-169" y="643"/>
      <point x="-165" y="643" type="curve" smooth="yes"/>
      <point x="-152" y="643"/>
      <point x="-108" y="629"/>
      <point x="-108" y="577" type="curve"/>
      <point x="-108" y="530"/>
      <point x="-148" y="509"/>
      <point x="-199" y="509" type="curve"/>
      <point x="-200" y="434" type="line"/>
      <point x="-119" y="434"/>
      <point x="-65" y="480"/>
      <point x="-65" y="553" type="curve" smooth="yes"/>
      <point x="-65" y="651"/>
      <point x="-143" y="685"/>
      <point x="-200" y="685" type="curve" smooth="yes"/>
    </contour>
    <contour>
      <point x="34" y="-76" type="line"/>
      <point x="70" y="-61"/>
      <point x="104" y="-36"/>
      <point x="104" y="6" type="curve" smooth="yes"/>
      <point x="104" y="45"/>
      <point x="66" y="71"/>
      <point x="30" y="85" type="curve"/>
      <point x="22" y="73" type="line"/>
      <point x="49" y="61"/>
      <point x="70" y="35"/>
      <point x="70" y="7" type="curve" smooth="yes"/>
      <point x="70" y="-26"/>
      <point x="43" y="-54"/>
      <point x="20" y="-64" type="curve"/>
    </contour>
    <contour>
      <point x="115" y="-106"/>
      <point x="56" y="-69"/>
      <point x="20" y="-64" type="curve"/>
      <point x="18" y="-75" type="line"/>
      <point x="54" y="-91"/>
      <point x="92" y="-121"/>
      <point x="92" y="-173" type="curve"/>
      <point x="92" y="-221"/>
      <point x="50" y="-269"/>
      <point x="-18" y="-269" type="curve" smooth="yes"/>
      <point x="-78" y="-269"/>
      <point x="-127" y="-229"/>
      <point x="-127" y="-175" type="curve" smooth="yes"/>
      <point x="-127" y="-115"/>
      <point x="-91" y="-91"/>
      <point x="-65" y="-91" type="curve" smooth="yes"/>
      <point x="-46" y="-91"/>
      <point x="-31" y="-105"/>
      <point x="-31" y="-124" type="curve" smooth="yes"/>
      <point x="-31" y="-144"/>
      <point x="-42" y="-160"/>
      <point x="-61" y="-160" type="curve" smooth="yes"/>
      <point x="-79" y="-160"/>
      <point x="-92" y="-145"/>
      <point x="-92" y="-123" type="curve" smooth="yes"/>
      <point x="-92" y="-108"/>
      <point x="-86" y="-89"/>
      <point x="-72" y="-76" type="curve"/>
      <point x="-95" y="-77" type="line"/>
      <point x="-105" y="-93"/>
      <point x="-108" y="-108"/>
      <point x="-108" y="-134" type="curve" smooth="yes"/>
      <point x="-108" y="-162"/>
      <point x="-88" y="-188"/>
      <point x="-61" y="-188" type="curve" smooth="yes"/>
      <point x="-29" y="-188"/>
      <point x="-16" y="-161"/>
      <point x="-16" y="-127" type="curve" smooth="yes"/>
      <point x="-16" y="-78"/>
      <point x="-44" y="-62"/>
      <point x="-70" y="-62" type="curve" smooth="yes"/>
      <point x="-103" y="-62"/>
      <point x="-147" y="-95"/>
      <point x="-147" y="-175" type="curve" smooth="yes"/>
      <point x="-147" y="-259"/>
      <point x="-83" y="-308"/>
      <point x="-21" y="-308" type="curve" smooth="yes"/>
      <point x="65" y="-308"/>
      <point x="115" y="-245"/>
      <point x="115" y="-177" type="curve"/>
    </contour>
  </outline>
</glyph>
<glyph name="knLengthmark" format="1">
  <advance width="343"/>
  <unicode hex="0CD5"/>
  <outline>
    <contour>
      <point x="118" y="391"/>
      <point x="116" y="374"/>
      <point x="116" y="338" type="curve" smooth="yes"/>
      <point x="116" y="280"/>
      <point x="152" y="234"/>
      <point x="206" y="234" type="curve" smooth="yes"/>
      <point x="257" y="234"/>
      <point x="300" y="279"/>
      <point x="300" y="352" type="curve" smooth="yes"/>
      <point x="300" y="425"/>
      <point x="265" y="484"/>
      <point x="195" y="484" type="curve" smooth="yes"/>
      <point x="104" y="484"/>
      <point x="50" y="373"/>
      <point x="50" y="247" type="curve" smooth="yes"/>
      <point x="50" y="150"/>
      <point x="83" y="61"/>
      <point x="145" y="-13" type="curve"/>
      <point x="248" y="-13" type="line"/>
      <point x="144" y="72"/>
      <point x="85" y="164"/>
      <point x="85" y="243" type="curve" smooth="yes"/>
      <point x="85" y="349"/>
      <point x="129" y="411"/>
      <point x="199" y="411" type="curve" smooth="yes"/>
      <point x="248" y="411"/>
      <point x="270" y="389"/>
      <point x="270" y="353" type="curve" smooth="yes"/>
      <point x="270" y="320"/>
      <point x="247" y="296"/>
      <point x="206" y="296" type="curve" smooth="yes"/>
      <point x="173" y="296"/>
      <point x="146" y="319"/>
      <point x="146" y="360" type="curve" smooth="yes"/>
      <point x="146" y="394"/>
      <point x="149" y="411"/>
      <point x="165" y="441" type="curve"/>
      <point x="124" y="419" type="line"/>
    </contour>
  </outline>
</glyph>
<glyph name="knLLLA" format="1">
  <advance width="811"/>
  <unicode hex="0CDE"/>
  <outline>
    <contour>
      <point x="569" y="-14" type="curve" smooth="yes"/>
      <point x="675" y="-14"/>
      <point x="752" y="82"/>
      <point x="752" y="261" type="curve" smooth="yes"/>
      <point x="752" y="392"/>
      <point x="684" y="519"/>
      <point x="582" y="519" type="curve" smooth="yes"/>
      <point x="511" y="519"/>
      <point x="475" y="457"/>
      <point x="475" y="391" type="curve" smooth="yes"/>
      <point x="475" y="325"/>
      <point x="517" y="273"/>
      <point x="580" y="273" type="curve" smooth="yes"/>
      <point x="638" y="273"/>
      <point x="681" y="308"/>
      <point x="681" y="381" type="curve" smooth="yes"/>
      <point x="681" y="394"/>
      <point x="680" y="407"/>
      <point x="677" y="429" type="curve"/>
      <point x="655" y="497" type="line"/>
      <point x="640" y="501"/>
      <point x="635" y="475"/>
      <point x="646" y="450" type="curve"/>
      <point x="649" y="440"/>
      <point x="653" y="419"/>
      <point x="653" y="408" type="curve" smooth="yes"/>
      <point x="653" y="365"/>
      <point x="622" y="344"/>
      <point x="580" y="344" type="curve" smooth="yes"/>
      <point x="533" y="344"/>
      <point x="505" y="365"/>
      <point x="505" y="401" type="curve" smooth="yes"/>
      <point x="505" y="440"/>
      <point x="539" y="454"/>
      <point x="577" y="454" type="curve" smooth="yes"/>
      <point x="670" y="454"/>
      <point x="712" y="365"/>
      <point x="712" y="272" type="curve" smooth="yes"/>
      <point x="712" y="149"/>
      <point x="655" y="71"/>
      <point x="564" y="71" type="curve" smooth="yes"/>
      <point x="489" y="71"/>
      <point x="422" y="146"/>
      <point x="409" y="221" type="curve"/>
      <point x="400" y="221" type="line"/>
      <point x="386" y="145"/>
      <point x="322" y="71"/>
      <point x="247" y="71" type="curve" smooth="yes"/>
      <point x="156" y="71"/>
      <point x="99" y="149"/>
      <point x="99" y="272" type="curve" smooth="yes"/>
      <point x="99" y="365"/>
      <point x="141" y="454"/>
      <point x="234" y="454" type="curve" smooth="yes"/>
      <point x="272" y="454"/>
      <point x="306" y="440"/>
      <point x="306" y="401" type="curve" smooth="yes"/>
      <point x="306" y="365"/>
      <point x="278" y="344"/>
      <point x="231" y="344" type="curve" smooth="yes"/>
      <point x="189" y="344"/>
      <point x="158" y="365"/>
      <point x="158" y="408" type="curve" smooth="yes"/>
      <point x="158" y="419"/>
      <point x="162" y="440"/>
      <point x="165" y="450" type="curve"/>
      <point x="176" y="475"/>
      <point x="171" y="501"/>
      <point x="156" y="497" type="curve"/>
      <point x="134" y="429" type="line"/>
      <point x="131" y="407"/>
      <point x="130" y="394"/>
      <point x="130" y="381" type="curve" smooth="yes"/>
      <point x="130" y="308"/>
      <point x="173" y="273"/>
      <point x="231" y="273" type="curve" smooth="yes"/>
      <point x="294" y="273"/>
      <point x="336" y="325"/>
      <point x="336" y="391" type="curve" smooth="yes"/>
      <point x="336" y="457"/>
      <point x="300" y="519"/>
      <point x="229" y="519" type="curve" smooth="yes"/>
      <point x="127" y="519"/>
      <point x="59" y="392"/>
      <point x="59" y="261" type="curve" smooth="yes"/>
      <point x="59" y="82"/>
      <point x="136" y="-14"/>
      <point x="247" y="-14" type="curve" smooth="yes"/>
      <point x="317" y="-14"/>
      <point x="381" y="43"/>
      <point x="404" y="126" type="curve"/>
      <point x="406" y="126" type="line"/>
      <point x="429" y="43"/>
      <point x="499" y="-14"/>
    </contour>
  </outline>
</glyph>
<glyph name="knZero" format="1">
  <advance width="538"/>
  <unicode hex="0CE6"/>
  <outline>
    <contour>
      <point x="143" y="519"/>
      <point x="55" y="411"/>
      <point x="55" y="249" type="curve" smooth="yes"/>
      <point x="55" y="85"/>
      <point x="154" y="-14"/>
      <point x="269" y="-14" type="curve"/>
      <point x="384" y="-14"/>
      <point x="483" y="85"/>
      <point x="483" y="249" type="curve" smooth="yes"/>
      <point x="483" y="411"/>
      <point x="395" y="519"/>
      <point x="269" y="519" type="curve"/>
    </contour>
    <contour>
      <point x="358" y="444"/>
      <point x="437" y="392"/>
      <point x="437" y="261" type="curve" smooth="yes"/>
      <point x="437" y="117"/>
      <point x="367" y="62"/>
      <point x="269" y="62" type="curve"/>
      <point x="171" y="62"/>
      <point x="101" y="117"/>
      <point x="101" y="261" type="curve" smooth="yes"/>
      <point x="101" y="392"/>
      <point x="180" y="444"/>
      <point x="269" y="444" type="curve"/>
    </contour>
  </outline>
</glyph>
<glyph name="knFive" format="1">
  <advance width="585"/>
  <unicode hex="0CEB"/>
  <outline>
    <contour>
      <point x="55" y="209"/>
      <point x="185" y="242"/>
      <point x="308" y="273" type="curve"/>
      <point x="418" y="301"/>
      <point x="520" y="327"/>
      <point x="520" y="396" type="curve"/>
      <point x="520" y="427"/>
      <point x="499" y="444"/>
      <point x="475" y="444" type="curve" smooth="yes"/>
      <point x="450" y="444"/>
      <point x="423" y="422"/>
      <point x="423" y="385" type="curve" smooth="yes"/>
      <point x="423" y="281"/>
      <point x="511" y="246"/>
      <point x="511" y="112" type="curve" smooth="yes"/>
      <point x="511" y="59"/>
      <point x="480" y="12"/>
      <point x="438" y="-14" type="curve"/>
      <point x="431" y="-14" type="line"/>
      <point x="415" y="-8"/>
      <point x="385" y="18"/>
      <point x="377" y="34" type="curve"/>
      <point x="377" y="40" type="line"/>
      <point x="412" y="54"/>
      <point x="443" y="95"/>
      <point x="443" y="138" type="curve" smooth="yes"/>
      <point x="443" y="230"/>
      <point x="387" y="264"/>
      <point x="387" y="391" type="curve" smooth="yes"/>
      <point x="387" y="471"/>
      <point x="419" y="518"/>
      <point x="477" y="518" type="curve" smooth="yes"/>
      <point x="528" y="518"/>
      <point x="565" y="483"/>
      <point x="565" y="417" type="curve"/>
      <point x="565" y="304"/>
      <point x="428" y="268"/>
      <point x="319" y="240" type="curve"/>
      <point x="196" y="209"/>
      <point x="99" y="180"/>
      <point x="99" y="117" type="curve"/>
      <point x="99" y="91"/>
      <point x="120" y="69"/>
      <point x="161" y="69" type="curve"/>
      <point x="229" y="69"/>
      <point x="284" y="134"/>
      <point x="284" y="249" type="curve"/>
      <point x="284" y="380"/>
      <point x="250" y="444"/>
      <point x="175" y="444" type="curve"/>
      <point x="135" y="444"/>
      <point x="109" y="426"/>
      <point x="109" y="399" type="curve" smooth="yes"/>
      <point x="109" y="370"/>
      <point x="134" y="357"/>
      <point x="162" y="357" type="curve" smooth="yes"/>
      <point x="188" y="357"/>
      <point x="205" y="368"/>
      <point x="214" y="380" type="curve"/>
      <point x="230" y="361" type="line"/>
      <point x="224" y="312"/>
      <point x="192" y="280"/>
      <point x="152" y="280" type="curve" smooth="yes"/>
      <point x="103" y="280"/>
      <point x="66" y="331"/>
      <point x="66" y="396" type="curve" smooth="yes"/>
      <point x="66" y="473"/>
      <point x="109" y="519"/>
      <point x="178" y="519" type="curve"/>
      <point x="262" y="519"/>
      <point x="324" y="423"/>
      <point x="324" y="260" type="curve"/>
      <point x="324" y="124"/>
      <point x="289" y="-14"/>
      <point x="174" y="-14" type="curve" smooth="yes"/>
      <point x="95" y="-14"/>
      <point x="55" y="42"/>
      <point x="55" y="100" type="curve"/>
    </contour>
  </outline>
</glyph>
<glyph name="knSeven" format="1">
  <advance width="474"/>
  <unicode hex="0CED"/>
  <outline>
    <contour>
      <point x="276" y="506"/>
      <point x="224" y="543"/>
      <point x="183" y="543" type="curve" smooth="yes"/>
      <point x="135" y="543"/>
      <point x="103" y="511"/>
      <point x="85" y="462" type="curve"/>
      <point x="101" y="443" type="line"/>
      <point x="115" y="457"/>
      <point x="135" y="466"/>
      <point x="166" y="466" type="curve" smooth="yes"/>
      <point x="205" y="466"/>
      <point x="230" y="445"/>
      <point x="230" y="399" type="curve"/>
      <point x="230" y="292"/>
      <point x="65" y="259"/>
      <point x="65" y="141" type="curve"/>
      <point x="65" y="68"/>
      <point x="104" y="0"/>
      <point x="264" y="0" type="curve" smooth="yes"/>
      <point x="469" y="0" type="line"/>
      <point x="469" y="83" type="line"/>
      <point x="262" y="83" type="line" smooth="yes"/>
      <point x="150" y="83"/>
      <point x="109" y="107"/>
      <point x="109" y="149" type="curve"/>
      <point x="109" y="236"/>
      <point x="276" y="270"/>
      <point x="276" y="422" type="curve" smooth="yes"/>
    </contour>
  </outline>
</glyph>
<glyph name="knNine" format="1">
  <advance width="525"/>
  <unicode hex="0CEF"/>
  <outline>
    <contour>
      <point x="68" y="62"/>
      <point x="168" y="-14"/>
      <point x="254" y="-14" type="curve" smooth="yes"/>
      <point x="290" y="-14"/>
      <point x="310" y="5"/>
      <point x="310" y="28" type="curve" smooth="yes"/>
      <point x="310" y="46"/>
      <point x="299" y="61"/>
      <point x="285" y="68" type="curve" smooth="yes"/>
      <point x="270" y="76"/>
      <point x="247" y="71"/>
      <point x="215" y="78" type="curve" smooth="yes"/>
      <point x="154" y="91"/>
      <point x="109" y="125"/>
      <point x="109" y="189" type="curve"/>
      <point x="109" y="252"/>
      <point x="151" y="301"/>
      <point x="212" y="301" type="curve" smooth="yes"/>
      <point x="251" y="301"/>
      <point x="270" y="284"/>
      <point x="270" y="260" type="curve" smooth="yes"/>
      <point x="270" y="231"/>
      <point x="245" y="219"/>
      <point x="204" y="219" type="curve" smooth="yes"/>
      <point x="143" y="219"/>
      <point x="80" y="260"/>
      <point x="80" y="329" type="curve" smooth="yes"/>
      <point x="80" y="391"/>
      <point x="127" y="421"/>
      <point x="203" y="421" type="curve" smooth="yes"/>
      <point x="520" y="421" type="line"/>
      <point x="520" y="508" type="line"/>
      <point x="226" y="508" type="line" smooth="yes"/>
      <point x="124" y="508"/>
      <point x="45" y="456"/>
      <point x="45" y="337" type="curve"/>
      <point x="45" y="169"/>
      <point x="159" y="149"/>
      <point x="214" y="149" type="curve" smooth="yes"/>
      <point x="283" y="149"/>
      <point x="328" y="192"/>
      <point x="328" y="249" type="curve" smooth="yes"/>
      <point x="328" y="299"/>
      <point x="289" y="344"/>
      <point x="215" y="344" type="curve"/>
      <point x="116" y="344"/>
      <point x="68" y="277"/>
      <point x="68" y="179" type="curve" smooth="yes"/>
    </contour>
  </outline>
</glyph>
<glyph name="bullet" format="1">
  <advance width="310"/>
  <unicode hex="2022"/>
  <outline>
    <contour>
      <point x="98" y="459"/>
      <point x="124" y="470"/>
      <point x="155" y="470" type="curve" smooth="yes"/>
      <point x="216" y="470"/>
      <point x="265" y="421"/>
      <point x="265" y="360" type="curve" smooth="yes"/>
      <point x="265" y="299"/>
      <point x="216" y="250"/>
      <point x="155" y="250" type="curve" smooth="yes"/>
      <point x="94" y="250"/>
      <point x="45" y="299"/>
      <point x="45" y="360" type="curve" smooth="yes"/>
      <point x="45" y="391"/>
      <point x="56" y="417"/>
      <point x="77" y="438" type="curve" smooth="yes"/>
    </contour>
  </outline>
</glyph>
<glyph name="uni208C" format="1">
  <advance width="590"/>
  <unicode hex="208C"/>
  <outline>
    <contour>
      <point x="532" y="155"/>
      <point x="522" y="143"/>
      <point x="509" y="143" type="curve" smooth="yes"/>
      <point x="64" y="143" type="line" smooth="yes"/>
      <point x="57" y="143"/>
      <point x="50" y="147"/>
      <point x="50" y="158" type="curve" smooth="yes"/>
      <point x="50" y="169"/>
      <point x="58" y="193"/>
      <point x="74" y="193" type="curve" smooth="yes"/>
      <point x="527" y="193" type="line" smooth="yes"/>
      <point x="534" y="193"/>
      <point x="541" y="187"/>
      <point x="541" y="182" type="curve"/>
      <point x="540" y="181" type="line"/>
      <point x="540" y="180"/>
      <point x="540" y="180"/>
      <point x="540" y="179" type="curve"/>
    </contour>
    <contour>
      <point x="527" y="364" type="line" smooth="yes"/>
      <point x="534" y="364"/>
      <point x="541" y="358"/>
      <point x="541" y="355" type="curve" smooth="yes"/>
      <point x="541" y="353"/>
      <point x="540" y="350"/>
      <point x="539" y="345" type="curve"/>
      <point x="537" y="340"/>
      <point x="535" y="336"/>
      <point x="534" y="332" type="curve"/>
      <point x="528" y="320"/>
      <point x="520" y="314"/>
      <point x="509" y="314" type="curve" smooth="yes"/>
      <point x="64" y="314" type="line" smooth="yes"/>
      <point x="57" y="314"/>
      <point x="50" y="320"/>
      <point x="50" y="330" type="curve" smooth="yes"/>
      <point x="50" y="340"/>
      <point x="58" y="364"/>
      <point x="74" y="364" type="curve" smooth="yes"/>
    </contour>
  </outline>
</glyph>
<glyph name="arrowboth" format="1">
  <advance width="1000"/>
  <unicode hex="2194"/>
  <outline>
    <contour>
      <point x="194" y="269" type="line"/>
      <point x="237" y="225"/>
      <point x="268" y="176"/>
      <point x="289" y="123" type="curve"/>
      <point x="290" y="122"/>
      <point x="290" y="120"/>
      <point x="290" y="119" type="curve" smooth="yes"/>
      <point x="290" y="114"/>
      <point x="286" y="112"/>
      <point x="277" y="112" type="curve" smooth="yes"/>
      <point x="268" y="112"/>
      <point x="260" y="116"/>
      <point x="253" y="123" type="curve" smooth="yes"/>
      <point x="180" y="199"/>
      <point x="116" y="251"/>
      <point x="62" y="279" type="curve"/>
      <point x="54" y="284"/>
      <point x="50" y="288"/>
      <point x="50" y="293" type="curve" smooth="yes"/>
      <point x="50" y="297"/>
      <point x="54" y="301"/>
      <point x="63" y="305" type="curve"/>
      <point x="117" y="333"/>
      <point x="181" y="385"/>
      <point x="254" y="461" type="curve" smooth="yes"/>
      <point x="261" y="468"/>
      <point x="269" y="472"/>
      <point x="278" y="472" type="curve" smooth="yes"/>
      <point x="287" y="472"/>
      <point x="291" y="470"/>
      <point x="291" y="465" type="curve" smooth="yes"/>
      <point x="291" y="464"/>
      <point x="291" y="462"/>
      <point x="290" y="461" type="curve"/>
      <point x="271" y="411"/>
      <point x="239" y="362"/>
      <point x="194" y="315" type="curve"/>
      <point x="806" y="315" type="line"/>
      <point x="763" y="359"/>
      <point x="732" y="408"/>
      <point x="711" y="461" type="curve"/>
      <point x="710" y="462"/>
      <point x="710" y="464"/>
      <point x="710" y="465" type="curve" smooth="yes"/>
      <point x="710" y="470"/>
      <point x="714" y="472"/>
      <point x="723" y="472" type="curve" smooth="yes"/>
      <point x="732" y="472"/>
      <point x="740" y="468"/>
      <point x="747" y="461" type="curve" smooth="yes"/>
      <point x="820" y="385"/>
      <point x="884" y="333"/>
      <point x="938" y="305" type="curve"/>
      <point x="946" y="300"/>
      <point x="950" y="296"/>
      <point x="950" y="292" type="curve" smooth="yes"/>
      <point x="950" y="287"/>
      <point x="946" y="283"/>
      <point x="937" y="279" type="curve"/>
      <point x="883" y="251"/>
      <point x="819" y="199"/>
      <point x="746" y="123" type="curve" smooth="yes"/>
      <point x="739" y="116"/>
      <point x="731" y="112"/>
      <point x="722" y="112" type="curve" smooth="yes"/>
      <point x="713" y="112"/>
      <point x="709" y="114"/>
      <point x="709" y="119" type="curve" smooth="yes"/>
      <point x="709" y="120"/>
      <point x="709" y="122"/>
      <point x="710" y="123" type="curve"/>
      <point x="729" y="173"/>
      <point x="761" y="222"/>
      <point x="806" y="269" type="curve"/>
    </contour>
  </outline>
</glyph>
<glyph name="uni2197" format="1">
  <advance width="810"/>
  <unicode hex="2197"/>
  <outline>
    <contour>
      <point x="96" y="-141" type="line" smooth="yes"/>
      <point x="91" y="-146"/>
      <point x="86" y="-148"/>
      <point x="79" y="-148" type="curve" smooth="yes"/>
      <point x="66" y="-148"/>
      <point x="46" y="-141"/>
      <point x="46" y="-132" type="curve" smooth="yes"/>
      <point x="46" y="-127"/>
      <point x="47" y="-124"/>
      <point x="50" y="-121" type="curve" smooth="yes"/>
      <point x="641" y="470" type="line"/>
      <point x="577" y="471"/>
      <point x="520" y="483"/>
      <point x="470" y="505" type="curve"/>
      <point x="466" y="507"/>
      <point x="464" y="510"/>
      <point x="464" y="513" type="curve" smooth="yes"/>
      <point x="464" y="520"/>
      <point x="482" y="530"/>
      <point x="494" y="530" type="curve" smooth="yes"/>
      <point x="535" y="530" type="line" smooth="yes"/>
      <point x="620" y="530"/>
      <point x="688" y="538"/>
      <point x="740" y="555" type="curve"/>
      <point x="745" y="557"/>
      <point x="750" y="558"/>
      <point x="753" y="558" type="curve" smooth="yes"/>
      <point x="759" y="558"/>
      <point x="762" y="555"/>
      <point x="762" y="548" type="curve" smooth="yes"/>
      <point x="762" y="546"/>
      <point x="761" y="542"/>
      <point x="760" y="537" type="curve"/>
      <point x="743" y="485"/>
      <point x="735" y="417"/>
      <point x="735" y="332" type="curve" smooth="yes"/>
      <point x="735" y="291" type="line" smooth="yes"/>
      <point x="735" y="279"/>
      <point x="725" y="261"/>
      <point x="718" y="261" type="curve" smooth="yes"/>
      <point x="714" y="261"/>
      <point x="711" y="263"/>
      <point x="709" y="267" type="curve"/>
      <point x="686" y="318"/>
      <point x="674" y="375"/>
      <point x="673" y="437" type="curve"/>
    </contour>
  </outline>
</glyph>
<glyph name="uni24A3" format="1">
  <advance width="1124"/>
  <unicode hex="24A3"/>
  <outline>
    <contour>
      <point x="984" y="609"/>
      <point x="1074" y="436"/>
      <point x="1074" y="280" type="curve" smooth="yes"/>
      <point x="1074" y="123"/>
      <point x="970" y="-128"/>
      <point x="891" y="-207" type="curve" smooth="yes"/>
      <point x="887" y="-211"/>
      <point x="881" y="-213"/>
      <point x="874" y="-213" type="curve" smooth="yes"/>
      <point x="859" y="-213"/>
      <point x="844" y="-204"/>
      <point x="844" y="-196" type="curve" smooth="yes"/>
      <point x="844" y="-193"/>
      <point x="847" y="-188"/>
      <point x="854" y="-181" type="curve" smooth="yes"/>
      <point x="930" y="-105"/>
      <point x="1014" y="106"/>
      <point x="1014" y="266" type="curve" smooth="yes"/>
      <point x="1014" y="425"/>
      <point x="936" y="599"/>
      <point x="856" y="679" type="curve" smooth="yes"/>
      <point x="851" y="684"/>
      <point x="848" y="688"/>
      <point x="848" y="691" type="curve" smooth="yes"/>
      <point x="848" y="700"/>
      <point x="855" y="704"/>
      <point x="869" y="704" type="curve" smooth="yes"/>
      <point x="882" y="704"/>
      <point x="892" y="701"/>
      <point x="899" y="694" type="curve" smooth="yes"/>
    </contour>
    <contour>
      <point x="435" y="2" type="line"/>
      <point x="354" y="-3" type="line"/>
      <point x="341" y="-3"/>
      <point x="334" y="0"/>
      <point x="334" y="7" type="curve" smooth="yes"/>
      <point x="334" y="13"/>
      <point x="340" y="18"/>
      <point x="352" y="22" type="curve" smooth="yes"/>
      <point x="376" y="30"/>
      <point x="400" y="34"/>
      <point x="400" y="65" type="curve" smooth="yes"/>
      <point x="400" y="566" type="line" smooth="yes"/>
      <point x="400" y="609"/>
      <point x="385" y="633"/>
      <point x="355" y="639" type="curve" smooth="yes"/>
      <point x="350" y="640"/>
      <point x="347" y="645"/>
      <point x="347" y="652" type="curve" smooth="yes"/>
      <point x="347" y="659"/>
      <point x="349" y="663"/>
      <point x="354" y="664" type="curve" smooth="yes"/>
      <point x="371" y="668"/>
      <point x="409" y="681"/>
      <point x="470" y="704" type="curve"/>
      <point x="472" y="705" type="line"/>
      <point x="475" y="705"/>
      <point x="480" y="700"/>
      <point x="477" y="684" type="curve" smooth="yes"/>
      <point x="472" y="655"/>
      <point x="470" y="614"/>
      <point x="470" y="562" type="curve" smooth="yes"/>
      <point x="470" y="388" type="line" smooth="yes"/>
      <point x="470" y="370"/>
      <point x="473" y="358"/>
      <point x="478" y="351" type="curve"/>
      <point x="535" y="393"/>
      <point x="585" y="414"/>
      <point x="629" y="414" type="curve" smooth="yes"/>
      <point x="694" y="414"/>
      <point x="743" y="355"/>
      <point x="743" y="278" type="curve" smooth="yes"/>
      <point x="743" y="68" type="line" smooth="yes"/>
      <point x="743" y="47"/>
      <point x="757" y="32"/>
      <point x="784" y="24" type="curve" smooth="yes"/>
      <point x="799" y="19"/>
      <point x="807" y="13"/>
      <point x="807" y="7" type="curve" smooth="yes"/>
      <point x="807" y="0"/>
      <point x="800" y="-3"/>
      <point x="787" y="-3" type="curve"/>
      <point x="709" y="2" type="line"/>
      <point x="631" y="-3" type="line"/>
      <point x="618" y="-3"/>
      <point x="611" y="0"/>
      <point x="611" y="7" type="curve" smooth="yes"/>
      <point x="611" y="13"/>
      <point x="619" y="19"/>
      <point x="634" y="24" type="curve" smooth="yes"/>
      <point x="660" y="32"/>
      <point x="673" y="47"/>
      <point x="673" y="68" type="curve" smooth="yes"/>
      <point x="673" y="272" type="line" smooth="yes"/>
      <point x="673" y="320"/>
      <point x="625" y="362"/>
      <point x="580" y="362" type="curve" smooth="yes"/>
      <point x="543" y="362"/>
      <point x="516" y="355"/>
      <point x="497" y="340" type="curve" smooth="yes"/>
      <point x="476" y="323"/>
      <point x="470" y="308"/>
      <point x="470" y="268" type="curve" smooth="yes"/>
      <point x="470" y="65" type="line"/>
      <point x="471" y="45"/>
      <point x="483" y="31"/>
      <point x="508" y="24" type="curve"/>
      <point x="523" y="19"/>
      <point x="531" y="13"/>
      <point x="531" y="7" type="curve" smooth="yes"/>
      <point x="531" y="0"/>
      <point x="524" y="-3"/>
      <point x="511" y="-3" type="curve"/>
    </contour>
    <contour>
      <point x="264" y="-205"/>
      <point x="252" y="-214"/>
      <point x="238" y="-214" type="curve" smooth="yes"/>
      <point x="231" y="-214"/>
      <point x="225" y="-212"/>
      <point x="220" y="-207" type="curve" smooth="yes"/>
      <point x="141" y="-128"/>
      <point x="40" y="111"/>
      <point x="40" y="268" type="curve" smooth="yes"/>
      <point x="40" y="425"/>
      <point x="132" y="610"/>
      <point x="216" y="694" type="curve" smooth="yes"/>
      <point x="223" y="701"/>
      <point x="231" y="705"/>
      <point x="238" y="705" type="curve" smooth="yes"/>
      <point x="253" y="705"/>
      <point x="265" y="697"/>
      <point x="265" y="689" type="curve" smooth="yes"/>
      <point x="265" y="685"/>
      <point x="261" y="679"/>
      <point x="252" y="670" type="curve" smooth="yes"/>
      <point x="171" y="589"/>
      <point x="100" y="439"/>
      <point x="100" y="278" type="curve" smooth="yes"/>
      <point x="100" y="117"/>
      <point x="175" y="-100"/>
      <point x="248" y="-173" type="curve" smooth="yes"/>
      <point x="259" y="-184"/>
      <point x="264" y="-190"/>
      <point x="264" y="-192" type="curve" smooth="yes"/>
    </contour>
  </outline>
</glyph>
<glyph name="uni24B1" format="1">
  <advance width="1045"/>
  <unicode hex="24B1"/>
  <outline>
    <contour>
      <point x="905" y="609"/>
      <point x="995" y="436"/>
      <point x="995" y="280" type="curve" smooth="yes"/>
      <point x="995" y="123"/>
      <point x="891" y="-128"/>
      <point x="812" y="-207" type="curve" smooth="yes"/>
      <point x="808" y="-211"/>
      <point x="802" y="-213"/>
      <point x="795" y="-213" type="curve" smooth="yes"/>
      <point x="780" y="-213"/>
      <point x="765" y="-204"/>
      <point x="765" y="-196" type="curve" smooth="yes"/>
      <point x="765" y="-193"/>
      <point x="768" y="-188"/>
      <point x="775" y="-181" type="curve" smooth="yes"/>
      <point x="851" y="-105"/>
      <point x="935" y="106"/>
      <point x="935" y="266" type="curve" smooth="yes"/>
      <point x="935" y="425"/>
      <point x="857" y="599"/>
      <point x="777" y="679" type="curve" smooth="yes"/>
      <point x="772" y="684"/>
      <point x="769" y="688"/>
      <point x="769" y="691" type="curve" smooth="yes"/>
      <point x="769" y="700"/>
      <point x="776" y="704"/>
      <point x="790" y="704" type="curve" smooth="yes"/>
      <point x="803" y="704"/>
      <point x="813" y="701"/>
      <point x="820" y="694" type="curve" smooth="yes"/>
    </contour>
    <contour>
      <point x="413" y="400" type="line"/>
      <point x="488" y="405" type="line"/>
      <point x="501" y="405"/>
      <point x="508" y="402"/>
      <point x="508" y="396" type="curve" smooth="yes"/>
      <point x="508" y="389"/>
      <point x="500" y="383"/>
      <point x="485" y="378" type="curve" smooth="yes"/>
      <point x="472" y="374"/>
      <point x="465" y="360"/>
      <point x="465" y="337" type="curve" smooth="yes"/>
      <point x="465" y="326"/>
      <point x="466" y="317"/>
      <point x="469" y="310" type="curve"/>
      <point x="543" y="111" type="line"/>
      <point x="546" y="104"/>
      <point x="548" y="100"/>
      <point x="549" y="100" type="curve" smooth="yes"/>
      <point x="550" y="100"/>
      <point x="552" y="103"/>
      <point x="555" y="110" type="curve" smooth="yes"/>
      <point x="627" y="295" type="line" smooth="yes"/>
      <point x="632" y="307"/>
      <point x="634" y="319"/>
      <point x="634" y="331" type="curve" smooth="yes"/>
      <point x="634" y="358"/>
      <point x="626" y="373"/>
      <point x="609" y="378" type="curve"/>
      <point x="594" y="383"/>
      <point x="586" y="389"/>
      <point x="586" y="396" type="curve" smooth="yes"/>
      <point x="586" y="402"/>
      <point x="593" y="405"/>
      <point x="606" y="405" type="curve"/>
      <point x="679" y="400" type="line"/>
      <point x="692" y="400"/>
      <point x="704" y="401"/>
      <point x="715" y="403" type="curve"/>
      <point x="726" y="404"/>
      <point x="736" y="405"/>
      <point x="745" y="405" type="curve" smooth="yes"/>
      <point x="754" y="405"/>
      <point x="758" y="402"/>
      <point x="758" y="396" type="curve" smooth="yes"/>
      <point x="758" y="389"/>
      <point x="752" y="384"/>
      <point x="739" y="380" type="curve" smooth="yes"/>
      <point x="713" y="371"/>
      <point x="686" y="343"/>
      <point x="673" y="311" type="curve" smooth="yes"/>
      <point x="595" y="123" type="line"/>
      <point x="558" y="23" type="line"/>
      <point x="543" y="-7"/>
      <point x="534" y="-22"/>
      <point x="531" y="-22" type="curve" smooth="yes"/>
      <point x="526" y="-22"/>
      <point x="520" y="-9"/>
      <point x="511" y="17" type="curve"/>
      <point x="389" y="329" type="line" smooth="yes"/>
      <point x="378" y="356"/>
      <point x="362" y="372"/>
      <point x="343" y="378" type="curve" smooth="yes"/>
      <point x="328" y="383"/>
      <point x="320" y="389"/>
      <point x="320" y="396" type="curve" smooth="yes"/>
      <point x="320" y="402"/>
      <point x="327" y="405"/>
      <point x="340" y="405" type="curve"/>
    </contour>
    <contour>
      <point x="264" y="-205"/>
      <point x="252" y="-214"/>
      <point x="238" y="-214" type="curve" smooth="yes"/>
      <point x="231" y="-214"/>
      <point x="225" y="-212"/>
      <point x="220" y="-207" type="curve" smooth="yes"/>
      <point x="141" y="-128"/>
      <point x="40" y="111"/>
      <point x="40" y="268" type="curve" smooth="yes"/>
      <point x="40" y="425"/>
      <point x="132" y="610"/>
      <point x="216" y="694" type="curve" smooth="yes"/>
      <point x="223" y="701"/>
      <point x="231" y="705"/>
      <point x="238" y="705" type="curve" smooth="yes"/>
      <point x="253" y="705"/>
      <point x="265" y="697"/>
      <point x="265" y="689" type="curve" smooth="yes"/>
      <point x="265" y="685"/>
      <point x="261" y="679"/>
      <point x="252" y="670" type="curve" smooth="yes"/>
      <point x="171" y="589"/>
      <point x="100" y="439"/>
      <point x="100" y="278" type="curve" smooth="yes"/>
      <point x="100" y="117"/>
      <point x="175" y="-100"/>
      <point x="248" y="-173" type="curve" smooth="yes"/>
      <point x="259" y="-184"/>
      <point x="264" y="-190"/>
      <point x="264" y="-192" type="curve" smooth="yes"/>
    </contour>
  </outline>
</glyph>
<glyph name="asciicircum.subs" format="1">
  <advance width="325"/>
  <outline>
    <contour>
      <point x="221" y="285"/>
      <point x="265" y="226"/>
      <point x="292" y="183" type="curve"/>
      <point x="294" y="181"/>
      <point x="295" y="179"/>
      <point x="295" y="177" type="curve" smooth="yes"/>
      <point x="295" y="172"/>
      <point x="293" y="170"/>
      <point x="288" y="170" type="curve" smooth="yes"/>
      <point x="287" y="170" type="line"/>
      <point x="264" y="175"/>
      <point x="259" y="183"/>
      <point x="234" y="216" type="curve" smooth="yes"/>
      <point x="197" y="264"/>
      <point x="174" y="295"/>
      <point x="165" y="308" type="curve" smooth="yes"/>
      <point x="163" y="311"/>
      <point x="161" y="310"/>
      <point x="158" y="306" type="curve" smooth="yes"/>
      <point x="155" y="302"/>
      <point x="145" y="290"/>
      <point x="130" y="270" type="curve" smooth="yes"/>
      <point x="93" y="219"/>
      <point x="70" y="189"/>
      <point x="62" y="181" type="curve"/>
      <point x="56" y="176"/>
      <point x="48" y="173"/>
      <point x="38" y="170" type="curve"/>
      <point x="37" y="170" type="line" smooth="yes"/>
      <point x="33" y="170"/>
      <point x="31" y="172"/>
      <point x="31" y="177" type="curve" smooth="yes"/>
      <point x="31" y="184"/>
      <point x="75" y="245"/>
      <point x="162" y="362" type="curve"/>
    </contour>
  </outline>
</glyph>
<glyph name="asciitilde.subs" format="1">
  <advance width="500"/>
  <outline>
    <contour>
      <point x="50" y="314"/>
      <point x="142" y="381"/>
      <point x="173" y="381" type="curve" smooth="yes"/>
      <point x="188" y="381"/>
      <point x="214" y="373"/>
      <point x="249" y="357" type="curve" smooth="yes"/>
      <point x="284" y="341"/>
      <point x="311" y="333"/>
      <point x="330" y="333" type="curve" smooth="yes"/>
      <point x="367" y="333"/>
      <point x="421" y="359"/>
      <point x="437" y="380" type="curve"/>
      <point x="438" y="381"/>
      <point x="440" y="382"/>
      <point x="441" y="382" type="curve" smooth="yes"/>
      <point x="444" y="382"/>
      <point x="451" y="371"/>
      <point x="451" y="367" type="curve" smooth="yes"/>
      <point x="451" y="365"/>
      <point x="451" y="363"/>
      <point x="450" y="362" type="curve"/>
      <point x="430" y="325"/>
      <point x="366" y="260"/>
      <point x="330" y="260" type="curve" smooth="yes"/>
      <point x="311" y="260"/>
      <point x="283" y="268"/>
      <point x="244" y="284" type="curve" smooth="yes"/>
      <point x="205" y="300"/>
      <point x="179" y="308"/>
      <point x="164" y="308" type="curve" smooth="yes"/>
      <point x="134" y="308"/>
      <point x="81" y="280"/>
      <point x="65" y="261" type="curve"/>
      <point x="58" y="254"/>
      <point x="50" y="273"/>
      <point x="50" y="277" type="curve" smooth="yes"/>
    </contour>
  </outline>
</glyph>
<glyph name="brokenbar.sinf" format="1">
  <advance width="260"/>
  <outline>
    <contour>
      <point x="160" y="183" type="line" smooth="yes"/>
      <point x="160" y="174"/>
      <point x="123" y="162"/>
      <point x="115" y="162" type="curve" smooth="yes"/>
      <point x="106" y="162"/>
      <point x="100" y="174"/>
      <point x="100" y="185" type="curve" smooth="yes"/>
      <point x="100" y="490" type="line" smooth="yes"/>
      <point x="100" y="509"/>
      <point x="134" y="521"/>
      <point x="144" y="521" type="curve" smooth="yes"/>
      <point x="154" y="521"/>
      <point x="160" y="515"/>
      <point x="160" y="508" type="curve" smooth="yes"/>
    </contour>
    <contour>
      <point x="100" y="52" type="line" smooth="yes"/>
      <point x="100" y="61"/>
      <point x="137" y="75"/>
      <point x="145" y="75" type="curve" smooth="yes"/>
      <point x="153" y="75"/>
      <point x="160" y="64"/>
      <point x="160" y="53" type="curve" smooth="yes"/>
      <point x="160" y="-300" type="line" smooth="yes"/>
      <point x="160" y="-317"/>
      <point x="129" y="-324"/>
      <point x="117" y="-324" type="curve" smooth="yes"/>
      <point x="105" y="-324"/>
      <point x="100" y="-317"/>
      <point x="100" y="-310" type="curve" smooth="yes"/>
    </contour>
  </outline>
</glyph>
<glyph name="bum" format="1">
  <advance width="665"/>
  <outline>
    <contour>
      <point x="600" y="154" type="line"/>
      <point x="570" y="154" type="line"/>
      <point x="570" y="116"/>
      <point x="537" y="71"/>
      <point x="489" y="71" type="curve" smooth="yes"/>
      <point x="416" y="71"/>
      <point x="350" y="146"/>
      <point x="337" y="221" type="curve"/>
      <point x="328" y="221" type="line"/>
      <point x="314" y="145"/>
      <point x="249" y="71"/>
      <point x="176" y="71" type="curve" smooth="yes"/>
      <point x="123" y="71"/>
      <point x="96" y="114"/>
      <point x="96" y="156" type="curve"/>
      <point x="61" y="156" type="line"/>
      <point x="45" y="125" type="line"/>
      <point x="45" y="38"/>
      <point x="106" y="-14"/>
      <point x="173" y="-14" type="curve" smooth="yes"/>
      <point x="241" y="-14"/>
      <point x="309" y="43"/>
      <point x="332" y="126" type="curve"/>
      <point x="334" y="126" type="line"/>
      <point x="357" y="43"/>
      <point x="425" y="-14"/>
      <point x="493" y="-14" type="curve" smooth="yes"/>
      <point x="559" y="-14"/>
      <point x="620" y="38"/>
      <point x="620" y="125" type="curve"/>
    </contour>
  </outline>
</glyph>
<glyph name="dagger.sinf" format="1">
  <advance width="440"/>
  <outline>
    <contour>
      <point x="185" y="479"/>
      <point x="203" y="491"/>
      <point x="221" y="491" type="curve" smooth="yes"/>
      <point x="239" y="491"/>
      <point x="255" y="482"/>
      <point x="255" y="450" type="curve" smooth="yes"/>
      <point x="255" y="434"/>
      <point x="252" y="410"/>
      <point x="245" y="377" type="curve" smooth="yes"/>
      <point x="238" y="344"/>
      <point x="235" y="318"/>
      <point x="235" y="297" type="curve" smooth="yes"/>
      <point x="235" y="290"/>
      <point x="240" y="287"/>
      <point x="251" y="287" type="curve" smooth="yes"/>
      <point x="261" y="287"/>
      <point x="279" y="290"/>
      <point x="305" y="297" type="curve" smooth="yes"/>
      <point x="331" y="304"/>
      <point x="352" y="307"/>
      <point x="369" y="307" type="curve" smooth="yes"/>
      <point x="393" y="307"/>
      <point x="405" y="295"/>
      <point x="405" y="272" type="curve" smooth="yes"/>
      <point x="405" y="253"/>
      <point x="395" y="237"/>
      <point x="368" y="237" type="curve" smooth="yes"/>
      <point x="355" y="237"/>
      <point x="335" y="240"/>
      <point x="309" y="247" type="curve" smooth="yes"/>
      <point x="282" y="254"/>
      <point x="265" y="257"/>
      <point x="256" y="257" type="curve" smooth="yes"/>
      <point x="239" y="257"/>
      <point x="235" y="249"/>
      <point x="235" y="235" type="curve" smooth="yes"/>
      <point x="235" y="228"/>
      <point x="240" y="217"/>
      <point x="251" y="202" type="curve"/>
      <point x="261" y="187"/>
      <point x="266" y="179"/>
      <point x="266" y="176" type="curve" smooth="yes"/>
      <point x="266" y="173"/>
      <point x="265" y="168"/>
      <point x="263" y="163" type="curve"/>
      <point x="261" y="157"/>
      <point x="259" y="147"/>
      <point x="256" y="133" type="curve" smooth="yes"/>
      <point x="253" y="118"/>
      <point x="251" y="99"/>
      <point x="248" y="74" type="curve" smooth="yes"/>
      <point x="242" y="7"/>
      <point x="239" y="-88"/>
      <point x="239" y="-212" type="curve" smooth="yes"/>
      <point x="239" y="-245"/>
      <point x="233" y="-261"/>
      <point x="220" y="-261" type="curve" smooth="yes"/>
      <point x="206" y="-261"/>
      <point x="199" y="-245"/>
      <point x="199" y="-214" type="curve" smooth="yes"/>
      <point x="199" y="-73"/>
      <point x="197" y="18"/>
      <point x="193" y="57" type="curve" smooth="yes"/>
      <point x="188" y="96"/>
      <point x="185" y="122"/>
      <point x="183" y="136" type="curve"/>
      <point x="180" y="149"/>
      <point x="178" y="159"/>
      <point x="177" y="164" type="curve"/>
      <point x="175" y="169"/>
      <point x="174" y="173"/>
      <point x="174" y="176" type="curve" smooth="yes"/>
      <point x="174" y="179"/>
      <point x="179" y="187"/>
      <point x="190" y="202" type="curve" smooth="yes"/>
      <point x="200" y="216"/>
      <point x="205" y="226"/>
      <point x="205" y="233" type="curve" smooth="yes"/>
      <point x="205" y="240"/>
      <point x="204" y="245"/>
      <point x="201" y="250" type="curve" smooth="yes"/>
      <point x="198" y="255"/>
      <point x="196" y="257"/>
      <point x="194" y="257" type="curve" smooth="yes"/>
      <point x="178" y="257"/>
      <point x="157" y="254"/>
      <point x="132" y="247" type="curve" smooth="yes"/>
      <point x="106" y="240"/>
      <point x="87" y="237"/>
      <point x="74" y="237" type="curve" smooth="yes"/>
      <point x="49" y="237"/>
      <point x="35" y="253"/>
      <point x="35" y="272" type="curve" smooth="yes"/>
      <point x="35" y="291"/>
      <point x="49" y="307"/>
      <point x="72" y="307" type="curve" smooth="yes"/>
      <point x="83" y="307"/>
      <point x="102" y="304"/>
      <point x="127" y="297" type="curve" smooth="yes"/>
      <point x="152" y="290"/>
      <point x="172" y="287"/>
      <point x="185" y="287" type="curve" smooth="yes"/>
      <point x="198" y="287"/>
      <point x="205" y="290"/>
      <point x="205" y="297" type="curve" smooth="yes"/>
      <point x="205" y="319"/>
      <point x="202" y="346"/>
      <point x="195" y="377" type="curve" smooth="yes"/>
      <point x="188" y="408"/>
      <point x="185" y="432"/>
      <point x="185" y="448" type="curve" smooth="yes"/>
    </contour>
  </outline>
</glyph>
<glyph name="equal.sups" format="1">
  <advance width="390"/>
  <outline>
    <contour>
      <point x="349" y="556" type="line" smooth="yes"/>
      <point x="355" y="556"/>
      <point x="358" y="553"/>
      <point x="358" y="547" type="curve" smooth="yes"/>
      <point x="358" y="535"/>
      <point x="348" y="520"/>
      <point x="337" y="520" type="curve" smooth="yes"/>
      <point x="42" y="520" type="line" smooth="yes"/>
      <point x="35" y="520"/>
      <point x="32" y="522"/>
      <point x="32" y="527" type="curve" smooth="yes"/>
      <point x="32" y="546"/>
      <point x="37" y="556"/>
      <point x="48" y="556" type="curve" smooth="yes"/>
    </contour>
    <contour>
      <point x="349" y="664" type="line" smooth="yes"/>
      <point x="355" y="664"/>
      <point x="358" y="662"/>
      <point x="358" y="657" type="curve" smooth="yes"/>
      <point x="358" y="644"/>
      <point x="348" y="628"/>
      <point x="337" y="628" type="curve" smooth="yes"/>
      <point x="42" y="628" type="line" smooth="yes"/>
      <point x="35" y="628"/>
      <point x="32" y="631"/>
      <point x="32" y="636" type="curve" smooth="yes"/>
      <point x="32" y="655"/>
      <point x="37" y="664"/>
      <point x="48" y="664" type="curve" smooth="yes"/>
    </contour>
  </outline>
</glyph>
<glyph name="knK" format="1">
  <advance width="907"/>
  <outline>
    <contour>
      <point x="270" y="0" type="move" name="blwm.kssa"/>
    </contour>
  </outline>
</glyph>
<glyph name="knKUU" format="1">
  <advance width="1143"/>
  <outline>
    <component base="knKA"/>
    <component base="knmUU" xOffset="522"/>
    <contour>
      <point x="270" y="0" type="move" name="blwm.kssa"/>
    </contour>
  </outline>
</glyph>
<glyph name="less.ordn" format="1">
  <advance width="354"/>
  <outline>
    <contour>
      <point x="314" y="313" type="line" smooth="yes"/>
      <point x="325" y="308"/>
      <point x="330" y="299"/>
      <point x="330" y="284" type="curve" smooth="yes"/>
      <point x="330" y="279"/>
      <point x="327" y="277"/>
      <point x="322" y="277" type="curve" smooth="yes"/>
      <point x="320" y="277" type="line"/>
      <point x="42" y="397" type="line" smooth="yes"/>
      <point x="24" y="405"/>
      <point x="15" y="411"/>
      <point x="15" y="414" type="curve" smooth="yes"/>
      <point x="15" y="420"/>
      <point x="24" y="437"/>
      <point x="36" y="441" type="curve"/>
      <point x="320" y="561" type="line"/>
      <point x="322" y="561" type="line" smooth="yes"/>
      <point x="326" y="561"/>
      <point x="330" y="556"/>
      <point x="329" y="552" type="curve"/>
      <point x="324" y="537"/>
      <point x="318" y="528"/>
      <point x="309" y="525" type="curve"/>
      <point x="66" y="420" type="line"/>
      <point x="65" y="419"/>
      <point x="65" y="418"/>
      <point x="67" y="417" type="curve"/>
    </contour>
  </outline>
</glyph>
<glyph name="percent.sups" format="1">
  <advance width="477"/>
  <outline>
    <contour>
      <point x="400" y="581"/>
      <point x="383" y="633"/>
      <point x="359" y="633" type="curve" smooth="yes"/>
      <point x="334" y="633"/>
      <point x="316" y="590"/>
      <point x="316" y="546" type="curve" smooth="yes"/>
      <point x="316" y="501"/>
      <point x="334" y="446"/>
      <point x="360" y="446" type="curve" smooth="yes"/>
      <point x="386" y="446"/>
      <point x="400" y="489"/>
      <point x="400" y="535" type="curve" smooth="yes"/>
    </contour>
    <contour>
      <point x="270" y="597"/>
      <point x="310" y="649"/>
      <point x="363" y="649" type="curve" smooth="yes"/>
      <point x="416" y="649"/>
      <point x="446" y="603"/>
      <point x="446" y="544" type="curve" smooth="yes"/>
      <point x="446" y="485"/>
      <point x="411" y="432"/>
      <point x="355" y="432" type="curve" smooth="yes"/>
      <point x="299" y="432"/>
      <point x="270" y="481"/>
      <point x="270" y="539" type="curve" smooth="yes"/>
    </contour>
    <contour>
      <point x="162" y="750"/>
      <point x="144" y="802"/>
      <point x="120" y="802" type="curve" smooth="yes"/>
      <point x="95" y="802"/>
      <point x="77" y="759"/>
      <point x="77" y="715" type="curve" smooth="yes"/>
      <point x="77" y="670"/>
      <point x="96" y="615"/>
      <point x="122" y="615" type="curve" smooth="yes"/>
      <point x="148" y="615"/>
      <point x="162" y="658"/>
      <point x="162" y="704" type="curve" smooth="yes"/>
    </contour>
    <contour>
      <point x="32" y="766"/>
      <point x="71" y="818"/>
      <point x="124" y="818" type="curve" smooth="yes"/>
      <point x="177" y="818"/>
      <point x="207" y="772"/>
      <point x="207" y="713" type="curve" smooth="yes"/>
      <point x="207" y="654"/>
      <point x="172" y="601"/>
      <point x="116" y="601" type="curve" smooth="yes"/>
      <point x="60" y="601"/>
      <point x="32" y="650"/>
      <point x="32" y="708" type="curve" smooth="yes"/>
    </contour>
    <contour>
      <point x="356" y="823" type="line" smooth="yes"/>
      <point x="361" y="830"/>
      <point x="369" y="833"/>
      <point x="378" y="833" type="curve" smooth="yes"/>
      <point x="387" y="833"/>
      <point x="391" y="830"/>
      <point x="391" y="825" type="curve" smooth="yes"/>
      <point x="391" y="824"/>
      <point x="391" y="824"/>
      <point x="390" y="823" type="curve"/>
      <point x="122" y="433" type="line" smooth="yes"/>
      <point x="118" y="427"/>
      <point x="111" y="424"/>
      <point x="102" y="424" type="curve" smooth="yes"/>
      <point x="92" y="424"/>
      <point x="87" y="426"/>
      <point x="87" y="431" type="curve" smooth="yes"/>
      <point x="87" y="432"/>
      <point x="87" y="432"/>
      <point x="88" y="432" type="curve"/>
      <point x="88" y="432"/>
      <point x="88" y="432"/>
      <point x="88" y="433" type="curve"/>
    </contour>
  </outline>
</glyph>
<glyph name="plus.ordn" format="1">
  <advance width="390"/>
  <outline>
    <contour>
      <point x="214" y="453" type="line" smooth="yes"/>
      <point x="214" y="450"/>
      <point x="215" y="449"/>
      <point x="217" y="449" type="curve" smooth="yes"/>
      <point x="349" y="449" type="line" smooth="yes"/>
      <point x="355" y="449"/>
      <point x="358" y="447"/>
      <point x="358" y="442" type="curve" smooth="yes"/>
      <point x="358" y="429"/>
      <point x="348" y="413"/>
      <point x="337" y="413" type="curve" smooth="yes"/>
      <point x="217" y="413" type="line" smooth="yes"/>
      <point x="215" y="413"/>
      <point x="214" y="412"/>
      <point x="214" y="411" type="curve" smooth="yes"/>
      <point x="214" y="290" type="line" smooth="yes"/>
      <point x="214" y="280"/>
      <point x="204" y="275"/>
      <point x="183" y="275" type="curve" smooth="yes"/>
      <point x="178" y="275"/>
      <point x="176" y="278"/>
      <point x="176" y="284" type="curve" smooth="yes"/>
      <point x="176" y="410" type="line" smooth="yes"/>
      <point x="176" y="412"/>
      <point x="175" y="413"/>
      <point x="173" y="413" type="curve" smooth="yes"/>
      <point x="42" y="413" type="line" smooth="yes"/>
      <point x="35" y="413"/>
      <point x="32" y="415"/>
      <point x="32" y="420" type="curve" smooth="yes"/>
      <point x="32" y="439"/>
      <point x="37" y="449"/>
      <point x="48" y="449" type="curve" smooth="yes"/>
      <point x="171" y="449" type="line" smooth="yes"/>
      <point x="174" y="449"/>
      <point x="176" y="451"/>
      <point x="176" y="454" type="curve" smooth="yes"/>
      <point x="176" y="557" type="line" smooth="yes"/>
      <point x="176" y="568"/>
      <point x="197" y="575"/>
      <point x="205" y="575" type="curve" smooth="yes"/>
      <point x="211" y="575"/>
      <point x="214" y="572"/>
      <point x="214" y="567" type="curve" smooth="yes"/>
    </contour>
  </outline>
</glyph>
<glyph name="swan" format="1">
  <advance width="611"/>
  <outline>
    <contour>
      <point x="90" y="187"/>
      <point x="120" y="217"/>
      <point x="152" y="251" type="curve" smooth="yes"/>
      <point x="192" y="292"/>
      <point x="237" y="338"/>
      <point x="237" y="397" type="curve" smooth="yes"/>
      <point x="237" y="471"/>
      <point x="178" y="519"/>
      <point x="113" y="519" type="curve" smooth="yes"/>
      <point x="55" y="519"/>
      <point x="-4" y="483"/>
      <point x="-4" y="414" type="curve" smooth="yes"/>
      <point x="-4" y="382"/>
      <point x="7" y="350"/>
      <point x="28" y="328" type="curve"/>
      <point x="59" y="348" type="line"/>
      <point x="51" y="363"/>
      <point x="48" y="375"/>
      <point x="48" y="386" type="curve" smooth="yes"/>
      <point x="48" y="423"/>
      <point x="74" y="450"/>
      <point x="113" y="450" type="curve" smooth="yes"/>
      <point x="150" y="450"/>
      <point x="184" y="425"/>
      <point x="184" y="383" type="curve" smooth="yes"/>
      <point x="184" y="342"/>
      <point x="153" y="309"/>
      <point x="121" y="276" type="curve" smooth="yes"/>
      <point x="82" y="236"/>
      <point x="39" y="193"/>
      <point x="39" y="125" type="curve"/>
      <point x="82" y="125" type="line"/>
      <point x="90" y="156" type="line"/>
    </contour>
  </outline>
</glyph>
